<?xml version="1.0" encoding="utf-8"?>
<!-- Generator: Adobe Illustrator 19.1.0, SVG Export Plug-In . SVG Version: 6.00 Build 0)  -->
<svg version="1.1" id="Layer_1" xmlns="http://www.w3.org/2000/svg" xmlns:xlink="http://www.w3.org/1999/xlink" x="0px" y="0px"
	 viewBox="0 0 226 221.3" style="enable-background:new 0 0 226 221.3;" xml:space="preserve">
<style type="text/css">
	.st0{fill:#95D600;}
</style>
<g>
	<path class="st0" d="M78.8,202.2c0,0-1.4-0.5-4.1-1.3c-0.8-0.3-1.6-0.6-2.6-0.9c-1-0.3-2-0.7-3-1.1c-1-0.4-2.2-0.8-3.4-1.4
		c-1.2-0.5-2.4-1.1-3.8-1.7c-5.3-2.4-11.5-5.8-18.1-10.3c-6.6-4.5-13.6-10.3-20.3-17.7c-6.7-7.3-13-16.2-17.6-26.9
		c-2.3-5.3-3.9-11.1-5-17.3c-0.6-3.1-0.7-6.3-0.7-9.5c0-0.8,0-1.6,0-2.4v-0.6v-0.2c0-0.5-0.2-0.2-0.2-0.4L0,110.5l0-1l0-1l0-0.5
		l0.1-0.6c0.1-0.9,0.2-1.7,0.3-2.6c0.4-3.2,1-6.4,1.9-9.5C3.2,92,4.2,89,5.5,86c2.6-5.9,5.8-11.5,9.7-16.6
		c3.8-5.1,8.1-9.8,12.7-14.1c4.6-4.3,9.5-8.2,14.5-11.7c10.1-7.1,20.9-12.9,31.8-17.8c10.9-4.8,21.9-8.7,32.7-11.9
		c10.8-3.1,21.3-5.6,31.4-7.5c10.1-1.9,19.7-3.2,28.5-4.2C184.5,0.4,199.4,0,209.7,0c5.2,0,9.2,0.1,12,0.2c2.8,0.1,4.2,0.1,4.2,0.1
		s-1.5,0.1-4.2,0.2c-2.8,0.1-6.8,0.3-12,0.7c-10.3,0.8-25,2.2-42.3,5.4c-8.7,1.6-18,3.6-27.7,6.2c-9.7,2.6-19.8,5.7-30.1,9.5
		c-10.2,3.8-20.5,8.3-30.5,13.7c-10,5.4-19.7,11.6-28.4,18.7C46.4,58.2,42.3,62,38.6,66c-3.7,4-7.1,8.3-9.9,12.7
		c-5.7,8.8-9,18.5-9.4,27.7l0,1.6l0,0.4l0,0.5l0,1l0,1l0,0.3c0-0.1,0,0.3,0-0.1l0,0.1l0,0.4l0.1,1.7c0.3,2.2,0.6,4.4,1.1,6.5
		c1,4.3,2.7,8.4,4.7,12.2c4,7.7,9.4,14.3,15.1,19.7c5.7,5.4,11.6,9.6,17.1,12.8c5.5,3.2,10.6,5.5,14.8,7.1c1.1,0.4,2.1,0.7,3,1.1
		c1,0.3,1.9,0.6,2.7,0.9c0.9,0.3,1.6,0.5,2.2,0.6c0.7,0.2,1.3,0.3,1.8,0.5c2.7,0.6,4.1,1,4.1,1L78.8,202.2z"/>
	<g>
		<path class="st0" d="M79.3,188.1c-10.5,6.2-18.8,21.8-22.1,33.2c15.5-12.5,33.9-22.2,53.9-25.1c-16.2-11.9-26.9-29.8-35.2-47.9
			C73.7,160.9,72.9,176.6,79.3,188.1z"/>
	</g>
</g>
</svg>
