<?xml version="1.0" encoding="utf-8"?>
<!-- Generator: Adobe Illustrator 18.1.1, SVG Export Plug-In . SVG Version: 6.00 Build 0)  -->
<svg version="1.1" id="Layer_1" xmlns="http://www.w3.org/2000/svg" xmlns:xlink="http://www.w3.org/1999/xlink" x="0px" y="0px"
	 viewBox="0 0 129.3 160" enable-background="new 0 0 129.3 160" xml:space="preserve">
<g>
	<path fill="#95D600" d="M2.6,0c0,0,4,1.2,10.8,3.6C20.2,5.9,30,9.5,41.5,14.2c11.5,4.7,24.9,10.6,38.7,18.2
		c6.9,3.8,13.9,8,20.7,12.9c3.4,2.4,6.8,5.1,10,8c3.3,2.9,6.4,6,9.2,9.6c2.8,3.6,5.4,7.6,7.2,12.3c1.8,4.7,2.5,10.1,1.6,15.4
		c-0.9,5.3-3.2,10.1-6.1,14c-2.9,3.9-6.1,7.2-9.5,9.9c-6.7,5.6-13.8,9.6-20.5,12.9c-6.7,3.3-13.2,6.1-19.2,8.3
		c-1.5,0.6-3,1.2-4.4,1.7c-1.4,0.5-2.9,1-4.2,1.5c-2.8,1-5.4,1.8-7.9,2.6c-4.9,1.6-9.3,2.8-12.8,3.9c-3.6,1-6.4,1.8-8.3,2.3
		c-1.9,0.5-2.9,0.8-2.9,0.8l-4.9-22.5c0,0,1-0.2,2.9-0.5c1.9-0.3,4.6-0.8,8.1-1.5c3.4-0.7,7.7-1.5,12.4-2.6c2.4-0.5,4.9-1.1,7.6-1.8
		c1.3-0.3,2.7-0.7,4.1-1c1.4-0.4,2.8-0.8,4.2-1.2c5.8-1.6,11.9-3.6,18.1-6c6.2-2.5,12.6-5.4,18.2-9.3c2.9-1.9,5.3-4.1,7.4-6.4
		c2.1-2.4,3.6-4.9,4.3-7.6c0.7-2.7,0.7-5.7-0.2-8.8c-0.8-3.1-2.4-6.3-4.5-9.4c-2-3.1-4.5-6.1-7.2-8.9c-2.7-2.8-5.6-5.5-8.6-8.1
		c-6-5.2-12.4-9.8-18.7-14C63.7,30.1,51,23.1,40,17.4c-11-5.7-20.4-10-27-12.9C6.4,1.5,2.6,0,2.6,0z"/>
	<polygon fill="#95D600" points="57,102.6 34.8,145 31.8,127.3 66.9,160 20.6,147.5 0,141.9 17.6,129.8 	"/>
</g>
</svg>
