<?xml version="1.0" encoding="utf-8"?>
<!-- Generator: Adobe Illustrator 18.1.1, SVG Export Plug-In . SVG Version: 6.00 Build 0)  -->
<svg version="1.1" id="Layer_1" xmlns="http://www.w3.org/2000/svg" xmlns:xlink="http://www.w3.org/1999/xlink" x="0px" y="0px"
	 viewBox="0 0 38.7 38.7" enable-background="new 0 0 38.7 38.7" xml:space="preserve">
<path fill="#4CBBE8" d="M19.3,0C8.7,0,0,8.7,0,19.3C0,30,8.7,38.7,19.3,38.7c10.7,0,19.3-8.7,19.3-19.3C38.7,8.7,30,0,19.3,0z
	 M24.9,31.4c-1.7-0.1-12.7-2.8-17.4-15.9c-0.9-2.8,0.2-7.2,3.4-8.2c3.2-1,4.8,3.4,5.3,6.3l-2.8,2.8c0,0-0.1,1.7,3.7,5.6
	c3.8,3.8,5.6,3.7,5.6,3.7l3.2-3.2c2,0.4,6.2,3,6.2,3C31.6,29.3,29,31.9,24.9,31.4z"/>
</svg>
