<?xml version="1.0" encoding="utf-8"?>
<!-- Generator: Adobe Illustrator 18.1.1, SVG Export Plug-In . SVG Version: 6.00 Build 0)  -->
<svg version="1.1" id="Layer_1" xmlns="http://www.w3.org/2000/svg" xmlns:xlink="http://www.w3.org/1999/xlink" x="0px" y="0px"
	 viewBox="0 0 1750 250" enable-background="new 0 0 1750 250" xml:space="preserve">
<g>
	<rect x="500" y="0" fill="none" width="250" height="250"/>
	<g>
		<g>
			<g>
				<path fill="#B7C9CB" d="M592.3,163.9c-1.8,7.5-3.7,14.9-5.5,22.4c17,0,34.1,0,51.1,0c-1.8-7.5-3.7-14.9-5.5-22.4
					C619.1,163.9,605.7,163.9,592.3,163.9z"/>
				<path fill="#E8E8E8" d="M641.1,185.9h-57.4c-1.5,0-2.6,1.4-2.6,3.1v1.2h62.7V189C643.8,187.2,642.6,185.9,641.1,185.9z"/>
				<path fill="#E8E8E8" d="M526,155.1v12.3c0,2.4,1.9,4.3,4.3,4.3h164.1c2.4,0,4.3-1.9,4.3-4.3v-12.3H526z"/>
				<path fill="#5C6566" d="M698.8,155.1V50.6c0-2.4-1.9-4.3-4.3-4.3H530.3c-2.4,0-4.3,1.9-4.3,4.3v104.5H698.8z"/>
				<rect x="533.1" y="53.1" fill="#FFFFFF" width="158.6" height="94.9"/>
			</g>
			<g>
				<rect x="550.6" y="132.4" fill="#FE9B57" width="7.3" height="9.7"/>
				<rect x="565.2" y="123.6" fill="#FE9B57" width="7.3" height="18.4"/>
				<rect x="579.7" y="117" fill="#FE9B57" width="7.3" height="25.1"/>
				<rect x="594.2" y="123" fill="#FE9B57" width="7.3" height="19"/>
				<rect x="608.8" y="101.4" fill="#FE9B57" width="7.3" height="40.7"/>
				<rect x="623.3" y="108.6" fill="#FE9B57" width="7.3" height="33.4"/>
				<rect x="637.8" y="93.6" fill="#FE9B57" width="7.3" height="48.4"/>
				<rect x="652.4" y="80" fill="#FE9B57" width="7.3" height="62"/>
				<rect x="666.9" y="66" fill="#FE9B57" width="7.3" height="76"/>
			</g>
			<g>
				<rect x="543.6" y="64.1" fill="#229BCC" width="29.6" height="2.8"/>
				<g>
					<rect x="543.6" y="71.3" fill="#ABFF0E" width="53.6" height="1.7"/>
					<rect x="543.6" y="76.6" fill="#ABFF0E" width="45.5" height="1.7"/>
					<rect x="543.6" y="82" fill="#ABFF0E" width="50.5" height="1.7"/>
					<rect x="543.6" y="87.3" fill="#ABFF0E" width="39.3" height="1.7"/>
				</g>
				<path fill="#229BCC" d="M543.6,94.1v5.1H561v-5.1H543.6z M558.1,97.5h-11.5v-1.7h11.5V97.5z"/>
			</g>
		</g>
		<g>
			<path fill="#CFF1FF" d="M543,131.7c-0.3,0-0.5-0.1-0.7-0.4c-0.2-0.4-0.1-0.8,0.2-1.1l41.4-26.8c0.2-0.2,0.6-0.2,0.8,0l12.4,6.9
				l15.2-23.9c0.1-0.2,0.3-0.3,0.5-0.3c0.2,0,0.4,0,0.6,0.2l13,10l42.9-37c0.3-0.3,0.8-0.2,1.1,0.1c0.3,0.3,0.2,0.8-0.1,1.1
				l-43.4,37.4c-0.3,0.2-0.7,0.3-1,0L613.2,88l-15.2,23.8c-0.2,0.3-0.7,0.5-1,0.3l-12.6-7.1l-41,26.6
				C543.3,131.6,543.1,131.7,543,131.7L543,131.7z"/>
		</g>
		<circle fill="#229BCC" cx="544.1" cy="130.5" r="3"/>
		<circle fill="#229BCC" cx="583.9" cy="104.4" r="3"/>
		<circle fill="#229BCC" cx="597.3" cy="111.1" r="3"/>
		<circle fill="#229BCC" cx="613.2" cy="87" r="3"/>
		<circle fill="#229BCC" cx="627.1" cy="97.6" r="3"/>
		<circle fill="#229BCC" cx="670" cy="59.8" r="3"/>
		<g>
			<defs>
				<path id="SVGID_4_" d="M698.8,155.1V50.6c0-2.4-1.9-4.3-4.3-4.3H530.3c-2.4,0-4.3,1.9-4.3,4.3v104.5H698.8z"/>
			</defs>
			<clipPath id="SVGID_1_">
				<use xlink:href="#SVGID_4_"  overflow="visible"/>
			</clipPath>
			<path clip-path="url(#SVGID_1_)" fill="#C3C9C4" d="M737.8,158.6l-23.3-23.4c-2-2-4.9-2.7-7.5-2c-0.1-0.1-0.2-0.2-0.3-0.3
				l-3.8-3.9c4.1-5.2,6.3-11.6,6.3-18.2c0-8-3.1-15.5-8.7-21.1c-5.6-5.7-13.1-8.8-21.1-8.8c-8,0-15.5,3.1-21.2,8.8
				c-5.6,5.6-8.7,13.1-8.8,21.1c0,16.5,13.3,29.9,29.8,29.9c6.7,0,13-2.2,18.2-6.2l3.8,3.9c0.1,0.1,0.3,0.2,0.4,0.3
				c-0.7,2.5,0,5.3,2,7.3l23.3,23.4c3,3,7.8,3,10.8,0c0,0,0,0,0,0C740.7,166.4,740.7,161.6,737.8,158.6z"/>
			<path clip-path="url(#SVGID_1_)" fill="#C3C9C4" d="M574.2,120.1h-55.8c-2.2,0-4.1,1.8-4.1,4.1v73.5c0,2.2,1.8,4.1,4.1,4.1h55.8
				c2.2,0,4.1-1.8,4.1-4.1v-73.5C578.2,121.9,576.4,120.1,574.2,120.1z"/>
		</g>
		<g>
			<path fill="#373737" d="M737.8,163.5C737.8,163.5,737.8,163.5,737.8,163.5c-3,3-7.8,3-10.8,0l-23.3-23.4c-3-3-3-7.8,0-10.8
				c0,0,0,0,0,0c3-3,7.8-3,10.8,0l23.3,23.4C740.7,155.7,740.7,160.6,737.8,163.5L737.8,163.5z"/>
			<path fill="#ECF0F1" d="M734.4,163.4c-1.1,1.1-3,1.1-4.2,0l-23.3-23.4c-1.1-1.2-1.1-3,0-4.2c1.2-1.2,3-1.2,4.2,0l23.3,23.4
				C735.6,160.3,735.6,162.2,734.4,163.4L734.4,163.4z"/>
			<path fill="#373737" d="M700.4,125.9L700.4,125.9c-5.7,5.7-13.2,8.8-21.2,8.8c-16.5,0-29.9-13.5-29.8-29.9c0-8,3.1-15.4,8.8-21.1
				c5.7-5.7,13.2-8.8,21.2-8.8c8,0,15.5,3.1,21.1,8.8c5.6,5.7,8.7,13.2,8.7,21.1C709.2,112.8,706,120.3,700.4,125.9L700.4,125.9z"/>
			<path fill="#ECF0F1" d="M679.2,133c-7.5,0-14.6-3-19.9-8.3c-5.3-5.3-8.2-12.4-8.2-19.9c0-7.5,3-14.6,8.3-19.9
				c5.3-5.3,12.4-8.3,19.9-8.3c0,0,0,0,0.1,0v0c0,2-1.5,3.7-3.6,4c-5.2,0.7-10,3.1-13.8,6.9c-4.6,4.6-7.2,10.7-7.2,17.2
				c0,6.5,2.5,12.6,7.1,17.3c3.8,3.8,8.5,6.2,13.7,6.9C677.7,129.3,679.2,131,679.2,133L679.2,133L679.2,133z"/>
			<g>
				<path fill="none" d="M697.9,123.4"/>
			</g>
			<path fill="#99D5DC" d="M663.6,89.1c-4.2,4.2-6.5,9.8-6.5,15.7c0,12.3,9.9,22.2,22.2,22.3c5.9,0,11.5-2.3,15.8-6.5l0,0
				c4.2-4.2,6.5-9.8,6.5-15.7c0-5.9-2.3-11.5-6.5-15.7c-4.2-4.2-9.8-6.5-15.7-6.5C673.4,82.6,667.8,84.9,663.6,89.1L663.6,89.1z"/>
			<path fill="#C1E2DE" d="M695,89.1c-4.2-4.2-9.8-6.5-15.7-6.5c-1.7,0-3.3,0.2-4.9,0.5c-2.4,1.1-4.7,2.6-6.6,4.6
				c-4.2,4.2-6.5,9.8-6.5,15.7c0,12.3,9.9,22.2,22.2,22.3c1.7,0,3.3-0.2,4.9-0.5c2.4-1.1,4.7-2.6,6.6-4.6l0,0
				c4.2-4.2,6.5-9.8,6.5-15.7C701.5,98.9,699.2,93.4,695,89.1z"/>
			<g>
				<path fill="#373737" d="M706.6,132.4c-1.5,1.5-3.9,1.5-5.4,0l-4.8-4.9c-1.5-1.5-1.5-3.9,0-5.4c0,0,0,0,0,0
					c1.5-1.5,3.9-1.5,5.4,0l4.8,4.9C708.1,128.5,708.1,130.9,706.6,132.4C706.7,132.4,706.6,132.4,706.6,132.4z"/>
			</g>
			<g>
				<defs>
					<path id="SVGID_3_" d="M663.6,89.1c-4.2,4.2-6.5,9.8-6.5,15.7c0,12.3,9.9,22.2,22.2,22.3c5.9,0,11.5-2.3,15.8-6.5l0,0
						c4.2-4.2,6.5-9.8,6.5-15.7c0-5.9-2.3-11.5-6.5-15.7c-4.2-4.2-9.8-6.5-15.7-6.5C673.4,82.6,667.8,84.9,663.6,89.1L663.6,89.1z"
						/>
				</defs>
				<clipPath id="SVGID_2_">
					<use xlink:href="#SVGID_3_"  overflow="visible"/>
				</clipPath>
				<g clip-path="url(#SVGID_2_)">
					<rect x="649.5" y="50.5" fill="#F3901D" width="13.1" height="111.4"/>
					<rect x="670" y="25.9" fill="#F3901D" width="13.1" height="136.7"/>
				</g>
			</g>
		</g>
		<rect x="514.3" y="148.2" fill="#C3C9C4" width="63.9" height="24"/>
		<g>
			<path fill="#373737" d="M569.9,122.1h-55.8c-2.2,0-4.1,1.8-4.1,4.1v73.5c0,2.2,1.8,4.1,4.1,4.1h55.8c2.2,0,4.1-1.8,4.1-4.1v-73.5
				C573.9,123.9,572.1,122.1,569.9,122.1z"/>
			<path fill="#FFFFFF" d="M542,201.6c-0.9,0-1.6-0.7-1.6-1.6c0-0.9,0.7-1.6,1.6-1.6c0.9,0,1.6,0.7,1.6,1.6
				C543.6,200.9,542.9,201.6,542,201.6z"/>
			<rect x="517.3" y="129.9" fill="#FFFFFF" width="49.4" height="65.8"/>
			<path fill="#FACE00" d="M548.1,164.9c-0.3,0.9-0.8,1.8-1.4,2.4l4.9,6.8c2.5-2.1,4.2-5,4.9-8.3L548.1,164.9z"/>
			<path fill="#ABFF0E" d="M543.2,156.3c2.8,0.6,5,3,5.3,5.9l8.3,0.9c0-0.1,0-0.2,0-0.3c0-7.8-6-14.2-13.6-14.9V156.3z"/>
			<path fill="#4CBBE8" d="M536.9,158.3c0.9-1,2.2-1.8,3.6-2.1v-8.3c-4.4,0.4-8.3,2.7-10.8,6.2L536.9,158.3z"/>
			<path fill="#FE9B57" d="M544.5,168.9c-0.8,0.4-1.7,0.6-2.7,0.6c-3.7,0-6.7-3-6.7-6.7c0-0.8,0.2-1.5,0.4-2.1l-7.2-4.2
				c-0.9,1.9-1.4,4.1-1.4,6.4c0,8.3,6.7,15,15,15c2.8,0,5.3-0.8,7.6-2.1L544.5,168.9z"/>
			<g>
				<rect x="542.3" y="186.6" fill="#5C6566" width="14.2" height="1.3"/>
				<rect x="523.4" y="182.5" fill="#5C6566" width="14.2" height="1.3"/>
				<rect x="520.5" y="145" fill="#5C6566" width="14.2" height="1.3"/>
				<g>
					<polygon fill="#5C6566" points="537.7,183.9 537.1,183.7 538.4,178.5 539,178.6 537.7,183.9 					"/>
				</g>
				<g>
					<polygon fill="#5C6566" points="536.1,148.1 534.2,145.3 534.7,144.9 536.6,147.8 536.1,148.1 					"/>
				</g>
				<rect x="549" y="143.9" fill="#5C6566" width="14.2" height="1.3"/>
				<g>
					<polygon fill="#5C6566" points="547.4,147.9 546.9,147.6 549.1,143.8 549.6,144.2 547.4,147.9 					"/>
				</g>
				<g>
					<polygon fill="#5C6566" points="555.9,186.9 552.8,173.9 553.4,173.7 556.5,186.8 555.9,186.9 					"/>
				</g>
			</g>
		</g>
	</g>
</g>
<rect x="250" y="0" fill="none" width="250" height="250"/>
<rect x="750" y="0" fill="none" width="250" height="250"/>
<rect x="1250" y="0" fill="none" width="250" height="250"/>
<g>
	<rect x="0" y="0" fill="none" width="250" height="250"/>
	<g>
		<g>
			<path fill="#FFFFFF" d="M190.3,225.1c0,0.6-0.5,1.1-1.1,1.1H38.9c-0.6,0-1.1-0.5-1.1-1.1v-214c0-0.6,0.5-1.1,1.1-1.1h150.2
				c0.6,0,1.1,0.5,1.1,1.1V225.1z"/>
			<path fill="#F1F1F1" d="M190.3,22.2V11.1c0-0.6-0.5-1.1-1.1-1.1H38.9c-0.6,0-1.1,0.5-1.1,1.1v11.1H190.3z"/>
			<path fill="#5C6566" d="M37.8,199.6v25.5c0,0.6,0.5,1.1,1.1,1.1h150.2c0.6,0,1.1-0.5,1.1-1.1v-25.5H37.8z"/>
			<rect x="37.8" y="62" fill="#229BCC" width="152.5" height="57.7"/>
			<g>
				<rect x="72.4" y="79.9" fill="#CFF1FF" width="82.9" height="5.4"/>
				<g>
					<rect x="63.6" y="90.6" fill="#CFF1FF" width="100.6" height="1.4"/>
					<rect x="59.5" y="95.5" fill="#CFF1FF" width="108.7" height="1.4"/>
					<rect x="72.8" y="100.5" fill="#CFF1FF" width="82.1" height="1.4"/>
				</g>
			</g>
			<rect x="93.6" y="34.4" fill="#CFF1FF" width="40.8" height="9.6"/>
			<g>
				<rect x="57.2" y="49.4" fill="#8FC4D7" width="20.2" height="1.4"/>
				<rect x="80.6" y="49.4" fill="#8FC4D7" width="20.2" height="1.4"/>
				<rect x="103.9" y="49.4" fill="#8FC4D7" width="20.2" height="1.4"/>
				<rect x="127.3" y="49.4" fill="#8FC4D7" width="20.2" height="1.4"/>
				<rect x="150.6" y="49.4" fill="#8FC4D7" width="20.2" height="1.4"/>
			</g>
			<g>
				<g>
					<g>
						<polygon fill="#FFFFFF" points="182.4,93.7 181.4,93 183,90.8 181.4,88.7 182.4,87.9 184.5,90.8 182.4,93.7 						"/>
					</g>
					<g>
						<polygon fill="#FFFFFF" points="183.7,91.4 178.1,91.4 178.1,90.2 183.7,90.2 183.7,91.4 						"/>
					</g>
				</g>
				<g>
					<g>
						<polygon fill="#FFFFFF" points="45.6,93.7 43.5,90.8 45.6,87.9 46.6,88.7 45.1,90.8 46.6,93 45.6,93.7 						"/>
					</g>
					<g>
						<polygon fill="#FFFFFF" points="49.9,91.4 44.3,91.4 44.3,90.2 49.9,90.2 49.9,91.4 						"/>
					</g>
				</g>
			</g>
			<g>
				<g>
					<rect x="50.6" y="127.6" fill="#CFF1FF" width="36.9" height="36.9"/>
					<path fill="#8FC4D7" d="M86.9,128.2v35.7H51.2v-35.7H86.9 M88.1,127H50v38.2h38.2V127L88.1,127z"/>
				</g>
				<g>
					<g>
						<path fill="#8FC4D7" d="M51.2,164.5c-0.2,0-0.3-0.1-0.4-0.2c-0.2-0.2-0.2-0.6,0-0.9l35.7-35.7c0.2-0.2,0.6-0.2,0.9,0
							c0.2,0.2,0.2,0.6,0,0.9l-35.7,35.7C51.5,164.5,51.3,164.5,51.2,164.5L51.2,164.5z"/>
					</g>
					<g>
						<path fill="#8FC4D7" d="M86.9,164.5c-0.2,0-0.3-0.1-0.4-0.2l-35.7-35.7c-0.2-0.2-0.2-0.6,0-0.9c0.2-0.2,0.6-0.2,0.9,0
							l35.7,35.7c0.2,0.2,0.2,0.6,0,0.9C87.2,164.5,87.1,164.5,86.9,164.5L86.9,164.5z"/>
					</g>
				</g>
			</g>
			<g>
				<g>
					<rect x="95.5" y="127.6" fill="#CFF1FF" width="36.9" height="36.9"/>
					<path fill="#8FC4D7" d="M131.9,128.2v35.7H96.2v-35.7H131.9 M133.1,127H94.9v38.2h38.2V127L133.1,127z"/>
				</g>
				<g>
					<g>
						<path fill="#8FC4D7" d="M96.2,164.5c-0.2,0-0.3-0.1-0.4-0.2c-0.2-0.2-0.2-0.6,0-0.9l35.7-35.7c0.2-0.2,0.6-0.2,0.9,0
							c0.2,0.2,0.2,0.6,0,0.9l-35.7,35.7C96.5,164.5,96.3,164.5,96.2,164.5L96.2,164.5z"/>
					</g>
					<g>
						<path fill="#8FC4D7" d="M131.9,164.5c-0.2,0-0.3-0.1-0.4-0.2l-35.7-35.7c-0.2-0.2-0.2-0.6,0-0.9c0.2-0.2,0.6-0.2,0.9,0
							l35.7,35.7c0.2,0.2,0.2,0.6,0,0.9C132.2,164.5,132,164.5,131.9,164.5L131.9,164.5z"/>
					</g>
				</g>
			</g>
			<rect x="141.2" y="128.3" fill="#ABFF0E" width="35.5" height="35.5"/>
			<path fill="#9AE60D" d="M175.4,129.6v32.9h-32.9v-32.9H175.4 M178.1,127h-38.2v38.2h38.2V127L178.1,127z"/>
			<g>
				<g>
					<path fill="none" d="M141.1,163.9"/>
				</g>
				<g>
					<path fill="none" d="M176.9,128.2"/>
				</g>
			</g>
			<g>
				<rect x="50" y="172.9" fill="#CFF1FF" width="37.4" height="1.4"/>
				<rect x="50" y="176.5" fill="#CFF1FF" width="34" height="1.4"/>
				<rect x="50" y="180" fill="#CFF1FF" width="37.4" height="1.4"/>
				<rect x="50" y="183.5" fill="#CFF1FF" width="29.8" height="1.4"/>
				<g>
					<rect x="50" y="169.5" fill="#8FC4D7" width="20.2" height="1.4"/>
				</g>
			</g>
			<g>
				<rect x="50" y="211.8" fill="#F1F1F1" width="37.4" height="1.4"/>
				<rect x="50" y="214.4" fill="#F1F1F1" width="34" height="1.4"/>
				<g>
					<rect x="50" y="208.4" fill="#F1F1F1" width="20.2" height="1.4"/>
				</g>
			</g>
			<g>
				<rect x="94.9" y="172.9" fill="#CFF1FF" width="37.4" height="1.4"/>
				<rect x="94.9" y="176.5" fill="#CFF1FF" width="34" height="1.4"/>
				<rect x="94.9" y="180" fill="#CFF1FF" width="37.4" height="1.4"/>
				<rect x="94.9" y="183.5" fill="#CFF1FF" width="29.8" height="1.4"/>
				<g>
					<rect x="94.9" y="169.5" fill="#8FC4D7" width="20.2" height="1.4"/>
				</g>
			</g>
			<g>
				<rect x="139.9" y="172.9" fill="#CFF1FF" width="37.4" height="1.4"/>
				<rect x="139.9" y="176.5" fill="#CFF1FF" width="34" height="1.4"/>
				<rect x="139.9" y="180" fill="#CFF1FF" width="37.4" height="1.4"/>
				<rect x="139.9" y="183.5" fill="#CFF1FF" width="29.8" height="1.4"/>
				<g>
					<rect x="139.9" y="169.5" fill="#A8B442" width="20.2" height="1.4"/>
				</g>
			</g>
			<path fill="#F1F1F1" d="M178.1,212.1c0,1.7-1.4,3.2-3.2,3.2c-1.7,0-3.2-1.4-3.2-3.2c0-1.7,1.4-3.2,3.2-3.2
				C176.7,208.9,178.1,210.3,178.1,212.1z"/>
			<circle fill="#F1F1F1" cx="166.8" cy="212.1" r="3.2"/>
			<path fill="#F1F1F1" d="M161.8,212.1c0,1.7-1.4,3.2-3.2,3.2c-1.7,0-3.2-1.4-3.2-3.2c0-1.7,1.4-3.2,3.2-3.2
				C160.4,208.9,161.8,210.3,161.8,212.1z"/>
			<circle fill="#B1BE46" cx="55.5" cy="16" r="2"/>
			<circle fill="#FFC907" cx="49.1" cy="16" r="2"/>
			<circle fill="#FD6120" cx="42.7" cy="16" r="2"/>
		</g>
		<path fill="#FE9B57" d="M206.1,178.8c-2.8,0-5.1,1.8-5.8,4.4c-1-0.2-2-0.4-3-0.5v-4.2c0-3.4-2.7-6.1-6.1-6.1
			c-3.4,0-6.1,2.7-6.1,6.1v4.1h-2.9v-9.7c0-3.4-2.7-6.1-6.1-6.1c-3.4,0-6.1,2.7-6.1,6.1v9.7c-1,0-2,0.2-2.9,0.4v-28.9
			c0-3.4-2.7-6.1-6.1-6.1c-3.4,0-6.1,2.7-6.1,6.1v43.7c0,0.2,0,0.5,0,0.7v15.2l-2.8-2.8v-12.2c0-5-4-9-9-9h-3c-0.1,0-0.2,0-0.4,0
			v11.3c0,0,0,0-0.1,0v15l20.2,20.2v-0.4c2.8,2.7,6.7,4.4,10.9,4.4h25.7c8.7,0,15.8-7.1,15.8-15.8v-10.6v-15.1v-13.6
			C212.2,181.5,209.5,178.8,206.1,178.8z"/>
		<path fill="#F29353" d="M182.4,182.6h-0.2v-9.7c0-3.4-2.7-6.1-6.1-6.1c-3.4,0-6.1,2.7-6.1,6.1v9.7c-1,0-2,0.2-2.9,0.4v-28.9
			c0-3.4-2.7-6.1-6.1-6.1c-3.4,0-6.1,2.7-6.1,6.1v43.7c0,0.2,0,0.5,0,0.7v15.2l-2.8-2.8v-12.2c0-5-4-9-9-9h-3c-0.1,0-0.2,0-0.4,0
			v11.3c0,0,0,0-0.1,0v15l20.2,20.2v-0.4c2.8,2.7,6.7,4.4,10.9,4.4h11.7V182.6z"/>
	</g>
</g>
<g>
	<rect x="1000" y="0" fill="none" width="250" height="250"/>
	<g>
		<g>
			<path fill-rule="evenodd" clip-rule="evenodd" fill="#373737" d="M1063,107.6h127.2l6.9,60.7c-26.6,0.1-48.8,6.3-65.7,19.9h-12.7
				c-20.5-14.1-42.8-19.9-66.3-19.9L1063,107.6z"/>
			<path opacity="0.2" fill-rule="evenodd" clip-rule="evenodd" fill="#F1F1F1" d="M1151,157.5c0.7,6.2,1.5,12.2,2.3,18.2
				c12.9-5,27.6-7.4,44.1-7.5l-6.9-60.7h-45.7C1147.3,124,1149.1,140.7,1151,157.5z"/>
			<polygon fill-rule="evenodd" clip-rule="evenodd" fill="#373737" points="1010,88.9 1123.8,61.8 1240,88.9 1240,99.2 1126.9,135 
				1010,99.2 			"/>
			<polygon opacity="0.2" fill-rule="evenodd" clip-rule="evenodd" fill="#F1F1F1" points="1010,89 1123.8,61.9 1240,89 1240,89 
				1127,123 1127,123 			"/>
			<path fill-rule="evenodd" clip-rule="evenodd" fill="#FE9B57" d="M1212.3,144.9h9.4c5.3,6.7,8.5,24.5,4.8,38l-17.4-0.3
				C1205.4,170.1,1206.8,157.5,1212.3,144.9"/>
			<path fill="#FACE00" d="M1217.1,139.3L1217.1,139.3c-1.4,0-2.5-1.1-2.5-2.5l0.1-26.5L1127,94.5c-1.4-0.2-2.3-1.6-2-2.9
				c0.2-1.4,1.6-2.3,3-2.1l91.8,16.5l-0.1,30.8C1219.6,138.2,1218.5,139.3,1217.1,139.3z"/>
			<g>
				<path fill-rule="evenodd" clip-rule="evenodd" fill="#FE9B57" d="M1217.1,120.7c5,0,9.1,4,9.1,9c0,5-4,9.1-9.1,9.1
					c-5,0-9-4-9-9.1C1208,124.7,1212.1,120.7,1217.1,120.7z"/>
				<path fill="#FE9B57" d="M1217.1,139.2c-5.3,0-9.5-4.3-9.5-9.5c0-5.3,4.3-9.5,9.5-9.5c5.3,0,9.6,4.3,9.6,9.5
					C1226.7,135,1222.4,139.2,1217.1,139.2z M1217.1,121.2c-4.7,0-8.5,3.8-8.5,8.5c0,4.7,3.8,8.5,8.5,8.5c4.7,0,8.6-3.8,8.6-8.5
					C1225.6,125,1221.8,121.2,1217.1,121.2z"/>
			</g>
			<rect x="1211.3" y="137" fill-rule="evenodd" clip-rule="evenodd" fill="#373737" width="11.6" height="7.9"/>
		</g>
	</g>
</g>
<rect x="1500" y="0" fill="none" width="250" height="250"/>
<g>
	<path fill="#FFFFFF" d="M1601.7,215c-49.6,0-90-40.4-90-90s40.4-90,90-90c49.6,0,90,40.4,90,90S1651.3,215,1601.7,215z"/>
	<path fill="#CFF1FF" d="M1601.7,199.2c-40.9,0-74.2-33.3-74.2-74.2c0-40.9,33.3-74.2,74.2-74.2c40.9,0,74.2,33.3,74.2,74.2
		C1675.9,165.9,1642.6,199.2,1601.7,199.2z"/>
	<path fill="#4CBBE8" d="M1660.2,125c0,32.3-26.2,58.5-58.5,58.5c-32.3,0-58.5-26.2-58.5-58.5s26.2-58.5,58.5-58.5
		C1634,66.5,1660.2,92.7,1660.2,125z"/>
	<circle fill="#229BCC" cx="1601.7" cy="125" r="40.9"/>
	<circle fill="#FFFFFF" cx="1601.7" cy="125" r="26.2"/>
	<circle fill="#ABFF0E" cx="1601.7" cy="125" r="10.2"/>
	<polygon opacity="0.25" points="1738.3,125.7 1717.1,106.8 1717.1,106.8 1731.7,82 1688.4,88.5 1678,106.2 1599.1,118 
		1606.1,132.4 1680.9,119.7 1695,132.2 	"/>
	<path fill="#D3D0DB" d="M1697.4,63.4l-99.5,55.1c0.3,3.4,0.9,5.9,1.9,7.9L1701,69.9L1697.4,63.4z"/>
	<path fill="#A5A2AB" d="M1701,69.9l-101.1,56.6c1.2,2.4,3,4.2,5.8,6l99.5-55.1L1701,69.9z"/>
	<polygon fill="#FE9B57" points="1704.3,68.5 1707.2,36.2 1668.9,57.5 1666,89.7 1704.3,68.5 	"/>
	<polygon fill="#E68645" points="1704.3,68.5 1666,89.7 1694.6,103.9 1732.9,82.7 	"/>
</g>
</svg>
