<?xml version="1.0" encoding="utf-8"?>
<!-- Generator: Adobe Illustrator 18.1.1, SVG Export Plug-In . SVG Version: 6.00 Build 0)  -->
<svg version="1.1" id="Layer_1" xmlns="http://www.w3.org/2000/svg" xmlns:xlink="http://www.w3.org/1999/xlink" x="0px" y="0px"
	 viewBox="0 0 1000 250" enable-background="new 0 0 1000 250" xml:space="preserve">
<g>
	<rect x="250" y="0" fill="none" width="250" height="250"/>
	<rect x="0" y="0" fill="none" width="250" height="250"/>
	<rect x="500" y="0" fill="none" width="250" height="250"/>
	<rect x="750" y="0" fill="none" width="250" height="250"/>
</g>
<g>
	<g>
		<g>
			<path fill="#B7C9CB" d="M339.8,166.9c-2,8-3.9,16.1-5.9,24.1c18.4,0,36.7,0,55.1,0c-2-8-3.9-16.1-5.9-24.1
				C368.6,166.9,354.2,166.9,339.8,166.9z"/>
			<path fill="#E8E8E8" d="M392.4,190.6h-61.9c-1.6,0-2.8,1.5-2.8,3.3v1.3h67.6V194C395.2,192.1,394,190.6,392.4,190.6z"/>
			<path fill="#E8E8E8" d="M268.3,157.5v13.3c0,2.6,2.1,4.6,4.6,4.6h177c2.6,0,4.6-2.1,4.6-4.6v-13.3H268.3z"/>
			<path fill="#5C6566" d="M454.5,157.5V44.8c0-2.6-2.1-4.6-4.6-4.6h-177c-2.6,0-4.6,2.1-4.6,4.6v112.7H454.5z"/>
			<rect x="275.9" y="47.4" fill="#FFFFFF" width="171" height="102.4"/>
		</g>
		<g>
			<rect x="294.8" y="132.9" fill="#FE9B57" width="7.8" height="10.4"/>
			<rect x="310.5" y="123.5" fill="#FE9B57" width="7.8" height="19.8"/>
			<rect x="326.2" y="116.3" fill="#FE9B57" width="7.8" height="27.1"/>
			<rect x="341.8" y="122.8" fill="#FE9B57" width="7.8" height="20.5"/>
			<rect x="357.5" y="99.5" fill="#FE9B57" width="7.8" height="43.9"/>
			<rect x="373.2" y="107.3" fill="#FE9B57" width="7.8" height="36"/>
			<rect x="388.8" y="91.2" fill="#FE9B57" width="7.8" height="52.2"/>
			<rect x="404.5" y="76.5" fill="#FE9B57" width="7.8" height="66.9"/>
			<rect x="420.2" y="61.4" fill="#FE9B57" width="7.8" height="82"/>
		</g>
		<g>
			<rect x="287.3" y="59.4" fill="#229BCC" width="32" height="3"/>
			<g>
				<rect x="287.3" y="67.1" fill="#ABFF0E" width="57.8" height="1.9"/>
				<rect x="287.3" y="72.9" fill="#ABFF0E" width="49.1" height="1.9"/>
				<rect x="287.3" y="78.6" fill="#ABFF0E" width="54.4" height="1.9"/>
				<rect x="287.3" y="84.4" fill="#ABFF0E" width="42.3" height="1.9"/>
			</g>
			<path fill="#229BCC" d="M287.3,91.6v5.5H306v-5.5H287.3z M302.8,95.3h-12.4v-1.9h12.4V95.3z"/>
		</g>
	</g>
	<g>
		<path fill="#CFF1FF" d="M286.6,132.2c-0.3,0-0.5-0.1-0.7-0.4c-0.3-0.4-0.1-0.9,0.2-1.2l44.6-28.9c0.3-0.2,0.6-0.2,0.9,0l13.3,7.5
			l16.4-25.7c0.1-0.2,0.3-0.3,0.6-0.4c0.2,0,0.5,0,0.7,0.2L376.7,94L423,54.1c0.4-0.3,0.9-0.3,1.2,0.1c0.3,0.4,0.3,0.9-0.1,1.2
			l-46.8,40.4c-0.3,0.3-0.7,0.3-1.1,0l-13.9-10.7L346,110.7c-0.2,0.4-0.7,0.5-1.1,0.3l-13.6-7.6L287,132
			C286.9,132.1,286.7,132.2,286.6,132.2L286.6,132.2z"/>
	</g>
	<circle fill="#229BCC" cx="287.7" cy="131" r="3.3"/>
	<circle fill="#229BCC" cx="330.7" cy="102.8" r="3.3"/>
	<circle fill="#229BCC" cx="345.2" cy="110.1" r="3.3"/>
	<circle fill="#229BCC" cx="362.3" cy="84.1" r="3.3"/>
	<circle fill="#229BCC" cx="377.3" cy="95.5" r="3.3"/>
	<circle fill="#229BCC" cx="423.5" cy="54.7" r="3.3"/>
	<g>
		<defs>
			<path id="SVGID_4_" d="M454.5,157.5V44.8c0-2.6-2.1-4.6-4.6-4.6h-177c-2.6,0-4.6,2.1-4.6,4.6v112.7H454.5z"/>
		</defs>
		<clipPath id="SVGID_1_">
			<use xlink:href="#SVGID_4_"  overflow="visible"/>
		</clipPath>
		<path clip-path="url(#SVGID_1_)" fill="#C3C9C4" d="M496.6,161.2L471.5,136c-2.2-2.2-5.3-2.9-8.1-2.1c-0.1-0.1-0.2-0.2-0.3-0.4
			l-4.1-4.2c4.4-5.6,6.8-12.5,6.8-19.7c0-8.6-3.3-16.7-9.4-22.8c-6.1-6.1-14.2-9.5-22.8-9.5c-8.6,0-16.7,3.3-22.8,9.4
			c-6.1,6.1-9.4,14.1-9.4,22.7c0,17.8,14.4,32.2,32.2,32.3c7.2,0,14.1-2.3,19.7-6.7l4.1,4.2c0.1,0.1,0.3,0.3,0.5,0.4
			c-0.7,2.7,0,5.8,2.1,7.9l25.1,25.3c3.2,3.2,8.4,3.2,11.7,0c0,0,0,0,0,0C499.8,169.7,499.8,164.4,496.6,161.2z"/>
		<path clip-path="url(#SVGID_1_)" fill="#C3C9C4" d="M320.2,119.7H260c-2.4,0-4.4,2-4.4,4.4v79.2c0,2.4,2,4.4,4.4,4.4h60.2
			c2.4,0,4.4-2,4.4-4.4v-79.2C324.6,121.7,322.6,119.7,320.2,119.7z"/>
	</g>
	<g>
		<path fill="#373737" d="M496.6,166.5C496.6,166.6,496.6,166.6,496.6,166.5c-3.2,3.2-8.5,3.2-11.7,0l-25.1-25.3
			c-3.2-3.2-3.2-8.4,0-11.6c0,0,0,0,0,0c3.2-3.2,8.4-3.2,11.7,0l25.1,25.3C499.8,158.1,499.8,163.3,496.6,166.5L496.6,166.5z"/>
		<path fill="#ECF0F1" d="M493,166.4c-1.2,1.2-3.3,1.2-4.5,0l-25.1-25.3c-1.2-1.2-1.2-3.3,0-4.5c1.3-1.2,3.3-1.2,4.5,0l25.1,25.3
			C494.3,163.1,494.3,165.1,493,166.4L493,166.4z"/>
		<path fill="#373737" d="M456.3,126L456.3,126c-6.1,6.1-14.2,9.5-22.8,9.5c-17.8,0-32.2-14.5-32.2-32.3c0-8.6,3.4-16.6,9.4-22.7
			c6.1-6.1,14.2-9.5,22.8-9.4c8.6,0,16.7,3.4,22.8,9.5c6.1,6.1,9.4,14.2,9.4,22.8C465.7,111.9,462.4,119.9,456.3,126L456.3,126z"/>
		<path fill="#ECF0F1" d="M433.5,133.6c-8.1,0-15.7-3.2-21.5-8.9c-5.7-5.8-8.9-13.4-8.9-21.5c0-8.1,3.2-15.7,8.9-21.4
			c5.7-5.7,13.4-8.9,21.5-8.9c0,0,0,0,0.1,0v0c0,2.2-1.7,4-3.8,4.3c-5.6,0.8-10.8,3.4-14.8,7.5c-5,5-7.7,11.6-7.7,18.6
			c0,7,2.7,13.6,7.7,18.6c4.1,4.1,9.2,6.7,14.8,7.5C431.8,129.6,433.5,131.4,433.5,133.6L433.5,133.6L433.5,133.6z"/>
		<g>
			<path fill="none" d="M453.6,123.3"/>
		</g>
		<path fill="#99D5DC" d="M416.6,86.3c-4.5,4.5-7,10.5-7,16.9c0,13.2,10.7,24,23.9,24c6.4,0,12.4-2.5,17-7l0,0
			c4.5-4.5,7-10.5,7-16.9c0-6.4-2.5-12.4-7-17c-4.5-4.5-10.5-7.1-16.9-7.1C427.2,79.3,421.1,81.8,416.6,86.3L416.6,86.3z"/>
		<path fill="#C1E2DE" d="M450.5,86.3c-4.5-4.5-10.5-7.1-16.9-7.1c-1.8,0-3.6,0.2-5.3,0.6c-2.6,1.2-5,2.8-7.1,4.9
			c-4.5,4.5-7,10.5-7,16.9c0,13.2,10.7,24,23.9,24c1.8,0,3.6-0.2,5.3-0.6c2.6-1.2,5-2.8,7.1-4.9l0,0c4.5-4.5,7-10.5,7-16.9
			C457.5,96.9,455,90.9,450.5,86.3z"/>
		<g>
			<path fill="#373737" d="M463,133c-1.6,1.6-4.2,1.6-5.8,0l-5.1-5.3c-1.6-1.6-1.6-4.2,0-5.8c0,0,0,0,0,0c1.6-1.6,4.2-1.6,5.8,0
				l5.1,5.3C464.7,128.8,464.6,131.4,463,133C463,133,463,133,463,133z"/>
		</g>
		<g>
			<defs>
				<path id="SVGID_3_" d="M416.6,86.3c-4.5,4.5-7,10.5-7,16.9c0,13.2,10.7,24,23.9,24c6.4,0,12.4-2.5,17-7l0,0
					c4.5-4.5,7-10.5,7-16.9c0-6.4-2.5-12.4-7-17c-4.5-4.5-10.5-7.1-16.9-7.1C427.2,79.3,421.1,81.8,416.6,86.3L416.6,86.3z"/>
			</defs>
			<clipPath id="SVGID_2_">
				<use xlink:href="#SVGID_3_"  overflow="visible"/>
			</clipPath>
			<g clip-path="url(#SVGID_2_)">
				<rect x="401.5" y="44.7" fill="#F3901D" width="14.1" height="120.1"/>
				<rect x="423.5" y="18.1" fill="#F3901D" width="14.1" height="147.4"/>
			</g>
		</g>
	</g>
	<rect x="255.6" y="150" fill="#C3C9C4" width="68.9" height="25.8"/>
	<g>
		<path fill="#373737" d="M315.6,121.8h-60.2c-2.4,0-4.4,2-4.4,4.4v79.2c0,2.4,2,4.4,4.4,4.4h60.2c2.4,0,4.4-2,4.4-4.4v-79.2
			C319.9,123.8,318,121.8,315.6,121.8z"/>
		<path fill="#FFFFFF" d="M285.5,207.6c-1,0-1.8-0.8-1.8-1.8c0-1,0.8-1.8,1.8-1.8c1,0,1.8,0.8,1.8,1.8
			C287.2,206.8,286.4,207.6,285.5,207.6z"/>
		<rect x="258.8" y="130.3" fill="#FFFFFF" width="53.3" height="71"/>
		<path fill="#FACE00" d="M292.1,168c-0.3,1-0.8,1.9-1.5,2.6l5.2,7.3c2.7-2.3,4.6-5.4,5.3-9L292.1,168z"/>
		<path fill="#ABFF0E" d="M286.8,158.7c3.1,0.6,5.4,3.2,5.7,6.4l9,1c0-0.1,0-0.2,0-0.3c0-8.4-6.4-15.3-14.7-16.1V158.7z"/>
		<path fill="#4CBBE8" d="M280,160.9c1-1.1,2.3-1.9,3.9-2.2v-9c-4.8,0.4-9,3-11.6,6.6L280,160.9z"/>
		<path fill="#FE9B57" d="M288.2,172.3c-0.9,0.4-1.9,0.6-2.9,0.6c-4,0-7.2-3.2-7.2-7.2c0-0.8,0.2-1.6,0.4-2.3l-7.8-4.6
			c-1,2.1-1.6,4.4-1.6,6.9c0,8.9,7.2,16.1,16.1,16.1c3,0,5.8-0.8,8.1-2.2L288.2,172.3z"/>
		<g>
			<rect x="285.8" y="191.4" fill="#5C6566" width="15.4" height="1.4"/>
			<rect x="265.5" y="187" fill="#5C6566" width="15.4" height="1.4"/>
			<rect x="262.3" y="146.5" fill="#5C6566" width="15.4" height="1.4"/>
			<g>
				<polygon fill="#5C6566" points="280.9,188.5 280.2,188.3 281.6,182.7 282.3,182.8 280.9,188.5 				"/>
			</g>
			<g>
				<polygon fill="#5C6566" points="279.1,149.9 277.1,146.9 277.6,146.5 279.7,149.6 279.1,149.9 				"/>
			</g>
			<rect x="293.1" y="145.3" fill="#5C6566" width="15.4" height="1.4"/>
			<g>
				<polygon fill="#5C6566" points="291.3,149.7 290.7,149.3 293.2,145.3 293.7,145.7 291.3,149.7 				"/>
			</g>
			<g>
				<polygon fill="#5C6566" points="300.5,191.7 297.2,177.7 297.8,177.5 301.2,191.6 300.5,191.7 				"/>
			</g>
		</g>
	</g>
</g>
<g>
	<g>
		<path fill="#FFFFFF" d="M195.4,232.9c0,0.7-0.6,1.2-1.2,1.2h-162c-0.7,0-1.2-0.6-1.2-1.2V2.2c0-0.7,0.6-1.2,1.2-1.2h162
			c0.7,0,1.2,0.6,1.2,1.2V232.9z"/>
		<path fill="#F1F1F1" d="M195.4,14.2V2.2c0-0.7-0.6-1.2-1.2-1.2h-162c-0.7,0-1.2,0.6-1.2,1.2v11.9H195.4z"/>
		<path fill="#5C6566" d="M30.9,205.4v27.5c0,0.7,0.6,1.2,1.2,1.2h162c0.7,0,1.2-0.6,1.2-1.2v-27.5H30.9z"/>
		<rect x="30.9" y="57.1" fill="#229BCC" width="164.5" height="62.2"/>
		<g>
			<rect x="68.3" y="76.3" fill="#CFF1FF" width="89.4" height="5.9"/>
			<g>
				<rect x="58.8" y="87.9" fill="#CFF1FF" width="108.4" height="1.5"/>
				<rect x="54.4" y="93.2" fill="#CFF1FF" width="117.2" height="1.5"/>
				<rect x="68.8" y="98.5" fill="#CFF1FF" width="88.5" height="1.5"/>
			</g>
		</g>
		<rect x="91.2" y="27.3" fill="#CFF1FF" width="44" height="10.4"/>
		<g>
			<rect x="51.9" y="43.5" fill="#8FC4D7" width="21.8" height="1.5"/>
			<rect x="77.1" y="43.5" fill="#8FC4D7" width="21.8" height="1.5"/>
			<rect x="102.3" y="43.5" fill="#8FC4D7" width="21.8" height="1.5"/>
			<rect x="127.5" y="43.5" fill="#8FC4D7" width="21.8" height="1.5"/>
			<rect x="152.6" y="43.5" fill="#8FC4D7" width="21.8" height="1.5"/>
		</g>
		<g>
			<g>
				<g>
					<polygon fill="#FFFFFF" points="186.9,91.3 185.8,90.5 187.5,88.2 185.8,85.8 186.9,85 189.2,88.2 186.9,91.3 					"/>
				</g>
				<g>
					<polygon fill="#FFFFFF" points="188.3,88.8 182.3,88.8 182.3,87.5 188.3,87.5 188.3,88.8 					"/>
				</g>
			</g>
			<g>
				<g>
					<polygon fill="#FFFFFF" points="39.4,91.3 37.2,88.2 39.4,85 40.5,85.8 38.8,88.2 40.5,90.5 39.4,91.3 					"/>
				</g>
				<g>
					<polygon fill="#FFFFFF" points="44,88.8 38,88.8 38,87.5 44,87.5 44,88.8 					"/>
				</g>
			</g>
		</g>
		<g>
			<g>
				<rect x="44.7" y="127.8" fill="#CFF1FF" width="39.8" height="39.8"/>
				<path fill="#8FC4D7" d="M83.9,128.4V167H45.4v-38.5H83.9 M85.2,127.1H44.1v41.2h41.2V127.1L85.2,127.1z"/>
			</g>
			<g>
				<g>
					<path fill="#8FC4D7" d="M45.4,167.6c-0.2,0-0.3-0.1-0.5-0.2c-0.3-0.3-0.3-0.7,0-0.9L83.5,128c0.3-0.3,0.7-0.3,0.9,0
						c0.3,0.3,0.3,0.7,0,0.9l-38.5,38.5C45.7,167.5,45.6,167.6,45.4,167.6L45.4,167.6z"/>
				</g>
				<g>
					<path fill="#8FC4D7" d="M83.9,167.6c-0.2,0-0.3-0.1-0.5-0.2l-38.5-38.5c-0.3-0.3-0.3-0.7,0-0.9c0.3-0.3,0.7-0.3,0.9,0
						l38.5,38.5c0.3,0.3,0.3,0.7,0,0.9C84.3,167.5,84.1,167.6,83.9,167.6L83.9,167.6z"/>
				</g>
			</g>
		</g>
		<g>
			<g>
				<rect x="93.2" y="127.8" fill="#CFF1FF" width="39.8" height="39.8"/>
				<path fill="#8FC4D7" d="M132.4,128.4V167H93.9v-38.5H132.4 M133.7,127.1H92.6v41.2h41.2V127.1L133.7,127.1z"/>
			</g>
			<g>
				<g>
					<path fill="#8FC4D7" d="M93.9,167.6c-0.2,0-0.3-0.1-0.5-0.2c-0.3-0.3-0.3-0.7,0-0.9L132,128c0.3-0.3,0.7-0.3,0.9,0
						c0.3,0.3,0.3,0.7,0,0.9l-38.5,38.5C94.2,167.5,94.1,167.6,93.9,167.6L93.9,167.6z"/>
				</g>
				<g>
					<path fill="#8FC4D7" d="M132.4,167.6c-0.2,0-0.3-0.1-0.5-0.2l-38.5-38.5c-0.3-0.3-0.3-0.7,0-0.9c0.3-0.3,0.7-0.3,0.9,0
						l38.5,38.5c0.3,0.3,0.3,0.7,0,0.9C132.8,167.5,132.6,167.6,132.4,167.6L132.4,167.6z"/>
				</g>
			</g>
		</g>
		<rect x="142.5" y="128.5" fill="#ABFF0E" width="38.3" height="38.3"/>
		<path fill="#9AE60D" d="M179.4,130v35.4h-35.4V130H179.4 M182.2,127.1h-41.2v41.2h41.2V127.1L182.2,127.1z"/>
		<g>
			<g>
				<path fill="none" d="M142.4,167"/>
			</g>
			<g>
				<path fill="none" d="M180.9,128.4"/>
			</g>
		</g>
		<g>
			<rect x="44.1" y="176.7" fill="#CFF1FF" width="40.3" height="1.5"/>
			<rect x="44.1" y="180.5" fill="#CFF1FF" width="36.7" height="1.5"/>
			<rect x="44.1" y="184.3" fill="#CFF1FF" width="40.3" height="1.5"/>
			<rect x="44.1" y="188.1" fill="#CFF1FF" width="32.2" height="1.5"/>
			<g>
				<rect x="44.1" y="173" fill="#8FC4D7" width="21.8" height="1.5"/>
			</g>
		</g>
		<g>
			<rect x="44.1" y="218.5" fill="#F1F1F1" width="40.3" height="1.5"/>
			<rect x="44.1" y="221.4" fill="#F1F1F1" width="36.7" height="1.5"/>
			<g>
				<rect x="44.1" y="214.9" fill="#F1F1F1" width="21.8" height="1.5"/>
			</g>
		</g>
		<g>
			<rect x="92.6" y="176.7" fill="#CFF1FF" width="40.3" height="1.5"/>
			<rect x="92.6" y="180.5" fill="#CFF1FF" width="36.7" height="1.5"/>
			<rect x="92.6" y="184.3" fill="#CFF1FF" width="40.3" height="1.5"/>
			<rect x="92.6" y="188.1" fill="#CFF1FF" width="32.2" height="1.5"/>
			<g>
				<rect x="92.6" y="173" fill="#8FC4D7" width="21.8" height="1.5"/>
			</g>
		</g>
		<g>
			<rect x="141.1" y="176.7" fill="#CFF1FF" width="40.3" height="1.5"/>
			<rect x="141.1" y="180.5" fill="#CFF1FF" width="36.7" height="1.5"/>
			<rect x="141.1" y="184.3" fill="#CFF1FF" width="40.3" height="1.5"/>
			<rect x="141.1" y="188.1" fill="#CFF1FF" width="32.2" height="1.5"/>
			<g>
				<rect x="141.1" y="173" fill="#A8B442" width="21.8" height="1.5"/>
			</g>
		</g>
		<path fill="#F1F1F1" d="M182.2,218.9c0,1.9-1.5,3.4-3.4,3.4c-1.9,0-3.4-1.5-3.4-3.4c0-1.9,1.5-3.4,3.4-3.4
			C180.7,215.5,182.2,217,182.2,218.9z"/>
		<circle fill="#F1F1F1" cx="170" cy="218.9" r="3.4"/>
		<path fill="#F1F1F1" d="M164.6,218.9c0,1.9-1.5,3.4-3.4,3.4c-1.9,0-3.4-1.5-3.4-3.4c0-1.9,1.5-3.4,3.4-3.4
			C163.1,215.5,164.6,217,164.6,218.9z"/>
		<circle fill="#B1BE46" cx="50.1" cy="7.5" r="2.1"/>
		<circle fill="#FFC907" cx="43.2" cy="7.5" r="2.1"/>
		<circle fill="#FD6120" cx="36.3" cy="7.5" r="2.1"/>
	</g>
	<path fill="#FE9B57" d="M212.5,183c-3,0-5.5,2-6.3,4.7c-1-0.3-2.1-0.4-3.2-0.5v-4.5c0-3.6-2.9-6.6-6.6-6.6c-3.6,0-6.6,2.9-6.6,6.6
		v4.5h-3.2v-10.4c0-3.6-2.9-6.6-6.6-6.6c-3.6,0-6.6,2.9-6.6,6.6v10.5c-1.1,0-2.1,0.2-3.2,0.4v-31.2c0-3.6-2.9-6.6-6.6-6.6
		c-3.6,0-6.6,2.9-6.6,6.6v47.1c0,0.2,0,0.5,0,0.7v16.4l-3-3v-13.1c0-5.4-4.3-9.7-9.7-9.7h-3.2c-0.1,0-0.3,0-0.4,0v12.2
		c0,0,0,0-0.1,0V223l21.8,21.8v-0.5c3.1,2.9,7.2,4.7,11.7,4.7H202c9.4,0,17.1-7.6,17.1-17.1v-11.4v-16.3v-14.7
		C219.1,185.9,216.1,183,212.5,183z"/>
	<path fill="#F29353" d="M186.9,187.1h-0.2v-10.4c0-3.6-2.9-6.6-6.6-6.6c-3.6,0-6.6,2.9-6.6,6.6v10.5c-1.1,0-2.1,0.2-3.2,0.4v-31.2
		c0-3.6-2.9-6.6-6.6-6.6c-3.6,0-6.6,2.9-6.6,6.6v47.1c0,0.2,0,0.5,0,0.7v16.4l-3-3v-13.1c0-5.4-4.3-9.7-9.7-9.7h-3.2
		c-0.1,0-0.3,0-0.4,0v12.2c0,0,0,0-0.1,0V223l21.8,21.8v-0.5c3.1,2.9,7.2,4.7,11.7,4.7h12.7V187.1z"/>
</g>
<g>
	<g>
		<path fill-rule="evenodd" clip-rule="evenodd" fill="#373737" d="M558.1,106.3h137.1l7.5,65.5c-28.7,0.2-52.6,6.8-70.9,21.4h-13.7
			c-22.1-15.2-46.1-21.4-71.4-21.4L558.1,106.3z"/>
		<path opacity="0.2" fill-rule="evenodd" clip-rule="evenodd" fill="#F1F1F1" d="M653.1,160c0.8,6.7,1.7,13.2,2.5,19.6
			c13.9-5.4,29.8-8,47.5-8.1l-7.5-65.5h-49.3C649,123.9,651,142,653.1,160z"/>
		<polygon fill-rule="evenodd" clip-rule="evenodd" fill="#373737" points="501,86.1 623.7,56.8 749,86.1 749,97.2 627,135.8 
			501,97.2 		"/>
		<polygon opacity="0.2" fill-rule="evenodd" clip-rule="evenodd" fill="#F1F1F1" points="501,86.2 623.7,56.9 749,86.2 749,86.2 
			627.1,122.9 627.1,122.9 		"/>
		<path fill-rule="evenodd" clip-rule="evenodd" fill="#FE9B57" d="M719.2,146.5h10.1c5.7,7.2,9.2,26.4,5.2,40.9l-18.8-0.3
			C711.7,173.6,713.2,160.1,719.2,146.5"/>
		<path fill="#FACE00" d="M724.3,140.5L724.3,140.5c-1.5,0-2.7-1.2-2.7-2.7l0.1-28.6l-94.5-17c-1.5-0.3-2.5-1.7-2.2-3.2
			c0.2-1.5,1.7-2.5,3.2-2.2l99,17.8l-0.1,33.2C727,139.3,725.8,140.5,724.3,140.5z"/>
		<g>
			<path fill-rule="evenodd" clip-rule="evenodd" fill="#FE9B57" d="M724.3,120.3c5.4,0,9.8,4.4,9.8,9.7c0,5.4-4.3,9.8-9.8,9.8
				c-5.3,0-9.7-4.4-9.7-9.8C714.5,124.7,718.9,120.3,724.3,120.3z"/>
			<path fill="#FE9B57" d="M724.3,140.4c-5.7,0-10.3-4.6-10.3-10.3c0-5.7,4.6-10.3,10.3-10.3c5.7,0,10.4,4.6,10.4,10.3
				C734.6,135.7,730,140.4,724.3,140.4z M724.3,120.9c-5.1,0-9.2,4.1-9.2,9.2c0,5.1,4.1,9.2,9.2,9.2c5.1,0,9.2-4.1,9.2-9.2
				C733.5,125,729.4,120.9,724.3,120.9z"/>
		</g>
		<rect x="718" y="138" fill-rule="evenodd" clip-rule="evenodd" fill="#373737" width="12.6" height="8.5"/>
	</g>
</g>
<g>
	<path fill="#FFFFFF" d="M849.5,223.5c-54.3,0-98.5-44.2-98.5-98.5s44.2-98.5,98.5-98.5c54.3,0,98.5,44.2,98.5,98.5
		S903.8,223.5,849.5,223.5z"/>
	<path fill="#CFF1FF" d="M849.5,206.3c-44.8,0-81.3-36.5-81.3-81.3c0-44.8,36.5-81.3,81.3-81.3c44.8,0,81.3,36.5,81.3,81.3
		C930.8,169.8,894.3,206.3,849.5,206.3z"/>
	<path fill="#4CBBE8" d="M913.6,125c0,35.4-28.7,64.1-64.1,64.1c-35.4,0-64.1-28.7-64.1-64.1s28.7-64.1,64.1-64.1
		C884.9,60.9,913.6,89.6,913.6,125z"/>
	<circle fill="#229BCC" cx="849.5" cy="125" r="44.8"/>
	<circle fill="#FFFFFF" cx="849.5" cy="125" r="28.6"/>
	<circle fill="#ABFF0E" cx="849.5" cy="125" r="11.2"/>
	<polygon opacity="0.25" points="999,125.7 975.8,105 975.8,105 991.8,78 944.4,85.1 933,104.4 846.7,117.4 854.3,133.1 
		936.2,119.1 951.6,132.8 	"/>
	<path fill="#D3D0DB" d="M954.2,57.6l-108.9,60.3c0.4,3.7,1,6.4,2.1,8.7l110.7-61.9L954.2,57.6z"/>
	<path fill="#A5A2AB" d="M958.1,64.7l-110.7,61.9c1.3,2.6,3.3,4.6,6.3,6.6l108.9-60.3L958.1,64.7z"/>
	<polygon fill="#FE9B57" points="961.8,63.2 965,27.8 923.1,51.1 919.9,86.4 961.8,63.2 	"/>
	<polygon fill="#E68645" points="961.8,63.2 919.9,86.4 951.2,101.9 993.1,78.6 	"/>
</g>
</svg>
