<?xml version="1.0" encoding="utf-8"?>
<!-- Generator: Adobe Illustrator 18.1.1, SVG Export Plug-In . SVG Version: 6.00 Build 0)  -->
<svg version="1.1" id="Layer_1" xmlns="http://www.w3.org/2000/svg" xmlns:xlink="http://www.w3.org/1999/xlink" x="0px" y="0px"
	 viewBox="0 0 1000 250" enable-background="new 0 0 1000 250" xml:space="preserve">
<rect x="250" y="0" fill="none" width="250" height="250"/>
<g>
	<g>
		<g>
			<path fill="#B7C9CB" d="M340.9,165.5c-1.9,7.8-3.8,15.6-5.7,23.4c17.8,0,35.6,0,53.3,0c-1.9-7.8-3.8-15.6-5.7-23.4
				C368.8,165.5,354.9,165.5,340.9,165.5z"/>
			<path fill="#E8E8E8" d="M391.8,188.5h-59.9c-1.5,0-2.8,1.4-2.8,3.2v1.2h65.5v-1.2C394.6,189.9,393.3,188.5,391.8,188.5z"/>
			<path fill="#E8E8E8" d="M271.7,156.4v12.9c0,2.5,2,4.5,4.5,4.5h171.3c2.5,0,4.5-2,4.5-4.5v-12.9H271.7z"/>
			<path fill="#5C6566" d="M452,156.4v-109c0-2.5-2-4.5-4.5-4.5H276.2c-2.5,0-4.5,2-4.5,4.5v109H452z"/>
			<rect x="279.1" y="49.9" fill="#FFFFFF" width="165.5" height="99.1"/>
		</g>
		<g>
			<rect x="297.4" y="132.7" fill="#FE9B57" width="7.6" height="10.1"/>
			<rect x="312.6" y="123.6" fill="#FE9B57" width="7.6" height="19.2"/>
			<rect x="327.7" y="116.6" fill="#FE9B57" width="7.6" height="26.2"/>
			<rect x="342.9" y="122.9" fill="#FE9B57" width="7.6" height="19.9"/>
			<rect x="358.1" y="100.3" fill="#FE9B57" width="7.6" height="42.5"/>
			<rect x="373.2" y="107.9" fill="#FE9B57" width="7.6" height="34.9"/>
			<rect x="388.4" y="92.2" fill="#FE9B57" width="7.6" height="50.5"/>
			<rect x="403.5" y="78.1" fill="#FE9B57" width="7.6" height="64.7"/>
			<rect x="418.7" y="63.4" fill="#FE9B57" width="7.6" height="79.4"/>
		</g>
		<g>
			<rect x="290.1" y="61.5" fill="#229BCC" width="30.9" height="2.9"/>
			<g>
				<rect x="290.1" y="69" fill="#ABFF0E" width="55.9" height="1.8"/>
				<rect x="290.1" y="74.5" fill="#ABFF0E" width="47.5" height="1.8"/>
				<rect x="290.1" y="80.1" fill="#ABFF0E" width="52.6" height="1.8"/>
				<rect x="290.1" y="85.7" fill="#ABFF0E" width="41" height="1.8"/>
			</g>
			<path fill="#229BCC" d="M290.1,92.7V98h18.1v-5.3H290.1z M305.1,96.3h-12v-1.8h12V96.3z"/>
		</g>
	</g>
	<g>
		<path fill="#CFF1FF" d="M289.4,131.9c-0.3,0-0.5-0.1-0.7-0.4c-0.2-0.4-0.1-0.9,0.2-1.1l43.2-28c0.3-0.2,0.6-0.2,0.8,0l12.9,7.2
			l15.9-24.9c0.1-0.2,0.3-0.3,0.5-0.4c0.2,0,0.5,0,0.6,0.2L376.6,95l44.8-38.6c0.3-0.3,0.9-0.3,1.1,0.1c0.3,0.3,0.3,0.9-0.1,1.2
			l-45.3,39.1c-0.3,0.3-0.7,0.3-1,0l-13.4-10.3l-15.8,24.8c-0.2,0.4-0.7,0.5-1.1,0.3l-13.2-7.4l-42.8,27.7
			C289.7,131.9,289.6,131.9,289.4,131.9L289.4,131.9z"/>
	</g>
	<circle fill="#229BCC" cx="290.6" cy="130.8" r="3.2"/>
	<circle fill="#229BCC" cx="332.1" cy="103.5" r="3.2"/>
	<circle fill="#229BCC" cx="346.1" cy="110.5" r="3.2"/>
	<circle fill="#229BCC" cx="362.7" cy="85.4" r="3.2"/>
	<circle fill="#229BCC" cx="377.2" cy="96.4" r="3.2"/>
	<circle fill="#229BCC" cx="421.9" cy="57" r="3.2"/>
	<g>
		<defs>
			<path id="SVGID_4_" d="M452,156.4v-109c0-2.5-2-4.5-4.5-4.5H276.2c-2.5,0-4.5,2-4.5,4.5v109H452z"/>
		</defs>
		<clipPath id="SVGID_1_">
			<use xlink:href="#SVGID_4_"  overflow="visible"/>
		</clipPath>
		<path clip-path="url(#SVGID_1_)" fill="#C3C9C4" d="M492.7,160.1l-24.3-24.4c-2.1-2.1-5.2-2.8-7.9-2c-0.1-0.1-0.2-0.2-0.3-0.3
			l-3.9-4.1c4.2-5.4,6.5-12.1,6.6-19c0-8.3-3.2-16.1-9.1-22.1c-5.9-5.9-13.7-9.2-22-9.2c-8.3,0-16.2,3.2-22.1,9.1
			c-5.9,5.9-9.1,13.7-9.1,22c0,17.2,13.9,31.2,31.1,31.2c7,0,13.6-2.3,19-6.5l3.9,4.1c0.1,0.1,0.3,0.2,0.4,0.4
			c-0.7,2.6,0,5.6,2.1,7.7l24.3,24.4c3.1,3.1,8.2,3.1,11.3,0c0,0,0,0,0,0C495.8,168.2,495.8,163.2,492.7,160.1z"/>
		<path clip-path="url(#SVGID_1_)" fill="#C3C9C4" d="M322,119.9h-58.2c-2.3,0-4.2,1.9-4.2,4.2v76.7c0,2.3,1.9,4.2,4.2,4.2H322
			c2.3,0,4.2-1.9,4.2-4.2v-76.7C326.2,121.8,324.3,119.9,322,119.9z"/>
	</g>
	<g>
		<path fill="#373737" d="M492.7,165.2C492.7,165.2,492.7,165.2,492.7,165.2c-3.1,3.1-8.2,3.1-11.3,0L457,140.8
			c-3.1-3.1-3.1-8.2,0-11.3c0,0,0,0,0,0c3.1-3.1,8.2-3.1,11.3,0l24.3,24.4C495.8,157.1,495.8,162.1,492.7,165.2L492.7,165.2z"/>
		<path fill="#ECF0F1" d="M489.2,165.1c-1.2,1.2-3.2,1.2-4.4,0l-24.3-24.4c-1.2-1.2-1.2-3.2,0-4.4c1.2-1.2,3.2-1.2,4.4,0l24.3,24.4
			C490.4,161.9,490.4,163.8,489.2,165.1L489.2,165.1z"/>
		<path fill="#373737" d="M453.7,126L453.7,126c-5.9,5.9-13.8,9.2-22.1,9.1c-17.2,0-31.2-14-31.1-31.2c0-8.3,3.3-16.1,9.1-22
			c5.9-5.9,13.8-9.2,22.1-9.1c8.3,0,16.1,3.3,22,9.2c5.9,5.9,9.1,13.7,9.1,22.1C462.8,112.3,459.6,120.1,453.7,126L453.7,126z"/>
		<path fill="#ECF0F1" d="M431.6,133.4c-7.8,0-15.2-3.1-20.8-8.7c-5.6-5.6-8.6-13-8.6-20.8c0-7.8,3.1-15.2,8.6-20.7
			c5.6-5.6,12.9-8.6,20.8-8.6c0,0,0,0,0.1,0v0c0,2.1-1.6,3.9-3.7,4.2c-5.4,0.8-10.4,3.3-14.3,7.2c-4.8,4.8-7.5,11.2-7.5,18
			c0,6.8,2.6,13.2,7.4,18c3.9,3.9,8.9,6.4,14.3,7.2C430,129.5,431.6,131.2,431.6,133.4L431.6,133.4L431.6,133.4z"/>
		<g>
			<path fill="none" d="M451.1,123.4"/>
		</g>
		<path fill="#99D5DC" d="M415.2,87.6c-4.4,4.4-6.8,10.2-6.8,16.4c0,12.8,10.4,23.2,23.2,23.2c6.2,0,12-2.4,16.5-6.8l0,0
			c4.4-4.4,6.8-10.2,6.8-16.3c0-6.2-2.4-12-6.8-16.4c-4.4-4.4-10.2-6.8-16.4-6.8C425.5,80.7,419.6,83.2,415.2,87.6L415.2,87.6z"/>
		<path fill="#C1E2DE" d="M448.1,87.6c-4.4-4.4-10.2-6.8-16.4-6.8c-1.7,0-3.5,0.2-5.1,0.6c-2.5,1.1-4.9,2.7-6.9,4.8
			c-4.4,4.4-6.8,10.2-6.8,16.4c0,12.8,10.4,23.2,23.2,23.2c1.7,0,3.5-0.2,5.1-0.6c2.5-1.1,4.9-2.7,6.9-4.8l0,0
			c4.4-4.4,6.8-10.2,6.8-16.3C454.9,97.8,452.5,92,448.1,87.6z"/>
		<g>
			<path fill="#373737" d="M460.2,132.8c-1.6,1.6-4.1,1.6-5.6,0l-5-5.1c-1.6-1.6-1.5-4.1,0-5.6c0,0,0,0,0,0c1.6-1.6,4.1-1.5,5.6,0
				l5,5.1C461.8,128.7,461.8,131.2,460.2,132.8C460.2,132.7,460.2,132.7,460.2,132.8z"/>
		</g>
		<g>
			<defs>
				<path id="SVGID_3_" d="M415.2,87.6c-4.4,4.4-6.8,10.2-6.8,16.4c0,12.8,10.4,23.2,23.2,23.2c6.2,0,12-2.4,16.5-6.8l0,0
					c4.4-4.4,6.8-10.2,6.8-16.3c0-6.2-2.4-12-6.8-16.4c-4.4-4.4-10.2-6.8-16.4-6.8C425.5,80.7,419.6,83.2,415.2,87.6L415.2,87.6z"/>
			</defs>
			<clipPath id="SVGID_2_">
				<use xlink:href="#SVGID_3_"  overflow="visible"/>
			</clipPath>
			<g clip-path="url(#SVGID_2_)">
				<rect x="400.6" y="47.3" fill="#F3901D" width="13.6" height="116.3"/>
				<rect x="421.9" y="21.6" fill="#F3901D" width="13.6" height="142.6"/>
			</g>
		</g>
	</g>
	<rect x="259.5" y="149.2" fill="#C3C9C4" width="66.7" height="25"/>
	<g>
		<path fill="#373737" d="M317.5,121.9h-58.2c-2.3,0-4.2,1.9-4.2,4.2v76.7c0,2.3,1.9,4.2,4.2,4.2h58.2c2.3,0,4.2-1.9,4.2-4.2v-76.7
			C321.7,123.8,319.8,121.9,317.5,121.9z"/>
		<path fill="#FFFFFF" d="M288.4,204.9c-0.9,0-1.7-0.8-1.7-1.7c0-0.9,0.8-1.7,1.7-1.7c0.9,0,1.7,0.8,1.7,1.7
			C290.1,204.2,289.3,204.9,288.4,204.9z"/>
		<rect x="262.6" y="130.2" fill="#FFFFFF" width="51.6" height="68.7"/>
		<path fill="#FACE00" d="M294.8,166.6c-0.3,1-0.8,1.8-1.5,2.6l5.1,7.1c2.6-2.2,4.4-5.2,5.1-8.7L294.8,166.6z"/>
		<path fill="#ABFF0E" d="M289.6,157.6c3,0.6,5.2,3.1,5.5,6.2l8.7,1c0-0.1,0-0.2,0-0.3c0-8.1-6.2-14.8-14.2-15.5V157.6z"/>
		<path fill="#4CBBE8" d="M283,159.8c1-1.1,2.3-1.8,3.7-2.2v-8.7c-4.6,0.4-8.7,2.9-11.2,6.4L283,159.8z"/>
		<path fill="#FE9B57" d="M291,170.8c-0.9,0.4-1.8,0.6-2.8,0.6c-3.9,0-7-3.1-7-7c0-0.8,0.2-1.5,0.4-2.2l-7.5-4.4
			c-1,2-1.5,4.3-1.5,6.7c0,8.6,7,15.6,15.6,15.6c2.9,0,5.6-0.8,7.9-2.2L291,170.8z"/>
		<g>
			<rect x="288.7" y="189.2" fill="#5C6566" width="14.9" height="1.3"/>
			<rect x="269" y="185" fill="#5C6566" width="14.9" height="1.3"/>
			<rect x="266" y="145.8" fill="#5C6566" width="14.9" height="1.3"/>
			<g>
				<polygon fill="#5C6566" points="283.9,186.5 283.3,186.3 284.7,180.8 285.3,181 283.9,186.5 				"/>
			</g>
			<g>
				<polygon fill="#5C6566" points="282.2,149.1 280.2,146.2 280.8,145.8 282.7,148.8 282.2,149.1 				"/>
			</g>
			<rect x="295.7" y="144.7" fill="#5C6566" width="14.9" height="1.3"/>
			<g>
				<polygon fill="#5C6566" points="294,148.9 293.5,148.6 295.8,144.7 296.4,145 294,148.9 				"/>
			</g>
			<g>
				<polygon fill="#5C6566" points="302.9,189.6 299.7,176 300.3,175.8 303.6,189.4 302.9,189.6 				"/>
			</g>
		</g>
	</g>
</g>
<rect x="0" y="0" fill="none" width="250" height="250"/>
<g>
	<g>
		<path fill="#FFFFFF" d="M193.1,229.5c0,0.7-0.5,1.2-1.2,1.2H35.2c-0.7,0-1.2-0.5-1.2-1.2V6.2C34,5.5,34.5,5,35.2,5h156.8
			c0.7,0,1.2,0.5,1.2,1.2V229.5z"/>
		<path fill="#F1F1F1" d="M193.1,17.7V6.2c0-0.7-0.5-1.2-1.2-1.2H35.2C34.5,5,34,5.5,34,6.2v11.6H193.1z"/>
		<path fill="#5C6566" d="M34,202.8v26.6c0,0.7,0.5,1.2,1.2,1.2h156.8c0.7,0,1.2-0.5,1.2-1.2v-26.6H34z"/>
		<rect x="34" y="59.3" fill="#229BCC" width="159.2" height="60.2"/>
		<g>
			<rect x="70.1" y="77.9" fill="#CFF1FF" width="86.5" height="5.7"/>
			<g>
				<rect x="60.9" y="89.1" fill="#CFF1FF" width="104.9" height="1.4"/>
				<rect x="56.7" y="94.2" fill="#CFF1FF" width="113.5" height="1.4"/>
				<rect x="70.6" y="99.4" fill="#CFF1FF" width="85.6" height="1.4"/>
			</g>
		</g>
		<rect x="92.3" y="30.5" fill="#CFF1FF" width="42.6" height="10.1"/>
		<g>
			<rect x="54.3" y="46.1" fill="#8FC4D7" width="21.1" height="1.4"/>
			<rect x="78.6" y="46.1" fill="#8FC4D7" width="21.1" height="1.4"/>
			<rect x="103" y="46.1" fill="#8FC4D7" width="21.1" height="1.4"/>
			<rect x="127.4" y="46.1" fill="#8FC4D7" width="21.1" height="1.4"/>
			<rect x="151.8" y="46.1" fill="#8FC4D7" width="21.1" height="1.4"/>
		</g>
		<g>
			<g>
				<g>
					<polygon fill="#FFFFFF" points="184.9,92.4 183.9,91.6 185.5,89.3 183.9,87.1 184.9,86.3 187.1,89.3 184.9,92.4 					"/>
				</g>
				<g>
					<polygon fill="#FFFFFF" points="186.3,90 180.5,90 180.5,88.7 186.3,88.7 186.3,90 					"/>
				</g>
			</g>
			<g>
				<g>
					<polygon fill="#FFFFFF" points="42.2,92.4 40,89.3 42.2,86.3 43.2,87.1 41.6,89.3 43.2,91.6 42.2,92.4 					"/>
				</g>
				<g>
					<polygon fill="#FFFFFF" points="46.6,90 40.8,90 40.8,88.7 46.6,88.7 46.6,90 					"/>
				</g>
			</g>
		</g>
		<g>
			<g>
				<rect x="47.3" y="127.7" fill="#CFF1FF" width="38.6" height="38.6"/>
				<path fill="#8FC4D7" d="M85.2,128.3v37.3H48v-37.3H85.2 M86.5,127H46.7v39.8h39.8V127L86.5,127z"/>
			</g>
			<g>
				<g>
					<path fill="#8FC4D7" d="M48,166.2c-0.2,0-0.3-0.1-0.5-0.2c-0.2-0.2-0.2-0.7,0-0.9l37.3-37.3c0.2-0.3,0.7-0.3,0.9,0
						c0.2,0.2,0.2,0.7,0,0.9l-37.3,37.3C48.3,166.2,48.1,166.2,48,166.2L48,166.2z"/>
				</g>
				<g>
					<path fill="#8FC4D7" d="M85.2,166.2c-0.2,0-0.3-0.1-0.5-0.2l-37.3-37.3c-0.2-0.2-0.2-0.7,0-0.9c0.2-0.3,0.7-0.3,0.9,0
						l37.3,37.3c0.2,0.2,0.2,0.7,0,0.9C85.6,166.2,85.4,166.2,85.2,166.2L85.2,166.2z"/>
				</g>
			</g>
		</g>
		<g>
			<g>
				<rect x="94.3" y="127.7" fill="#CFF1FF" width="38.6" height="38.6"/>
				<path fill="#8FC4D7" d="M132.2,128.3v37.3H94.9v-37.3H132.2 M133.5,127H93.6v39.8h39.8V127L133.5,127z"/>
			</g>
			<g>
				<g>
					<path fill="#8FC4D7" d="M94.9,166.2c-0.2,0-0.3-0.1-0.5-0.2c-0.2-0.2-0.2-0.7,0-0.9l37.3-37.3c0.2-0.3,0.7-0.3,0.9,0
						c0.2,0.2,0.2,0.7,0,0.9l-37.3,37.3C95.2,166.2,95.1,166.2,94.9,166.2L94.9,166.2z"/>
				</g>
				<g>
					<path fill="#8FC4D7" d="M132.2,166.2c-0.2,0-0.3-0.1-0.5-0.2l-37.3-37.3c-0.2-0.2-0.2-0.7,0-0.9c0.2-0.3,0.7-0.3,0.9,0
						l37.3,37.3c0.2,0.2,0.2,0.7,0,0.9C132.5,166.2,132.3,166.2,132.2,166.2L132.2,166.2z"/>
				</g>
			</g>
		</g>
		<rect x="142" y="128.4" fill="#ABFF0E" width="37.1" height="37.1"/>
		<path fill="#9AE60D" d="M177.6,129.8v34.3h-34.3v-34.3H177.6 M180.4,127h-39.8v39.8h39.8V127L180.4,127z"/>
		<g>
			<g>
				<path fill="none" d="M141.8,165.6"/>
			</g>
			<g>
				<path fill="none" d="M179.1,128.3"/>
			</g>
		</g>
		<g>
			<rect x="46.7" y="175" fill="#CFF1FF" width="39" height="1.4"/>
			<rect x="46.7" y="178.7" fill="#CFF1FF" width="35.5" height="1.4"/>
			<rect x="46.7" y="182.4" fill="#CFF1FF" width="39" height="1.4"/>
			<rect x="46.7" y="186.1" fill="#CFF1FF" width="31.1" height="1.4"/>
			<g>
				<rect x="46.7" y="171.5" fill="#8FC4D7" width="21.1" height="1.4"/>
			</g>
		</g>
		<g>
			<rect x="46.7" y="215.5" fill="#F1F1F1" width="39" height="1.4"/>
			<rect x="46.7" y="218.3" fill="#F1F1F1" width="35.5" height="1.4"/>
			<g>
				<rect x="46.7" y="212" fill="#F1F1F1" width="21.1" height="1.4"/>
			</g>
		</g>
		<g>
			<rect x="93.6" y="175" fill="#CFF1FF" width="39" height="1.4"/>
			<rect x="93.6" y="178.7" fill="#CFF1FF" width="35.5" height="1.4"/>
			<rect x="93.6" y="182.4" fill="#CFF1FF" width="39" height="1.4"/>
			<rect x="93.6" y="186.1" fill="#CFF1FF" width="31.1" height="1.4"/>
			<g>
				<rect x="93.6" y="171.5" fill="#8FC4D7" width="21.1" height="1.4"/>
			</g>
		</g>
		<g>
			<rect x="140.6" y="175" fill="#CFF1FF" width="39" height="1.4"/>
			<rect x="140.6" y="178.7" fill="#CFF1FF" width="35.5" height="1.4"/>
			<rect x="140.6" y="182.4" fill="#CFF1FF" width="39" height="1.4"/>
			<rect x="140.6" y="186.1" fill="#CFF1FF" width="31.1" height="1.4"/>
			<g>
				<rect x="140.6" y="171.5" fill="#A8B442" width="21.1" height="1.4"/>
			</g>
		</g>
		<path fill="#F1F1F1" d="M180.4,215.9c0,1.8-1.5,3.3-3.3,3.3c-1.8,0-3.3-1.5-3.3-3.3c0-1.8,1.5-3.3,3.3-3.3
			C178.9,212.6,180.4,214,180.4,215.9z"/>
		<circle fill="#F1F1F1" cx="168.6" cy="215.9" r="3.3"/>
		<path fill="#F1F1F1" d="M163.4,215.9c0,1.8-1.5,3.3-3.3,3.3c-1.8,0-3.3-1.5-3.3-3.3c0-1.8,1.5-3.3,3.3-3.3
			C161.9,212.6,163.4,214,163.4,215.9z"/>
		<circle fill="#B1BE46" cx="52.5" cy="11.3" r="2"/>
		<circle fill="#FFC907" cx="45.8" cy="11.3" r="2"/>
		<circle fill="#FD6120" cx="39.2" cy="11.3" r="2"/>
	</g>
	<path fill="#FE9B57" d="M209.7,181.1c-2.9,0-5.3,1.9-6.1,4.6c-1-0.3-2-0.4-3.1-0.5v-4.4c0-3.5-2.8-6.4-6.4-6.4
		c-3.5,0-6.4,2.9-6.4,6.4v4.3h-3.1V175c0-3.5-2.8-6.4-6.4-6.4c-3.5,0-6.4,2.8-6.4,6.4v10.1c-1,0-2.1,0.2-3.1,0.4v-30.2
		c0-3.5-2.8-6.4-6.4-6.4c-3.5,0-6.4,2.8-6.4,6.4v45.6c0,0.2,0,0.5,0,0.7v15.8l-2.9-2.9v-12.7c0-5.2-4.2-9.4-9.4-9.4h-3.1
		c-0.1,0-0.3,0-0.4,0v11.8c0,0,0,0-0.1,0v15.6l21.1,21.1v-0.4c3,2.8,7,4.5,11.4,4.5h26.8c9.1,0,16.5-7.4,16.5-16.5v-11v-15.8v-14.2
		C216,183.9,213.2,181.1,209.7,181.1z"/>
	<path fill="#F29353" d="M184.9,185.1h-0.2V175c0-3.5-2.8-6.4-6.4-6.4c-3.5,0-6.4,2.8-6.4,6.4v10.1c-1,0-2.1,0.2-3.1,0.4v-30.2
		c0-3.5-2.8-6.4-6.4-6.4c-3.5,0-6.4,2.8-6.4,6.4v45.6c0,0.2,0,0.5,0,0.7v15.8l-2.9-2.9v-12.7c0-5.2-4.2-9.4-9.4-9.4h-3.1
		c-0.1,0-0.3,0-0.4,0v11.8c0,0,0,0-0.1,0v15.6l21.1,21.1v-0.4c3,2.8,7,4.5,11.4,4.5h12.2V185.1z"/>
</g>
<rect x="500" y="0" fill="none" width="250" height="250"/>
<g>
	<g>
		<path fill-rule="evenodd" clip-rule="evenodd" fill="#373737" d="M560.3,106.9H693l7.3,63.4c-27.7,0.2-50.9,6.6-68.6,20.7h-13.3
			c-21.4-14.7-44.6-20.7-69.1-20.7L560.3,106.9z"/>
		<path opacity="0.2" fill-rule="evenodd" clip-rule="evenodd" fill="#F1F1F1" d="M652.2,158.9c0.7,6.5,1.6,12.8,2.4,19
			c13.4-5.2,28.8-7.8,46-7.9l-7.2-63.4h-47.7C648.3,124,650.1,141.4,652.2,158.9z"/>
		<polygon fill-rule="evenodd" clip-rule="evenodd" fill="#373737" points="505,87.3 623.8,59 745,87.3 745,98.1 627,135.5 
			505,98.1 		"/>
		<polygon opacity="0.2" fill-rule="evenodd" clip-rule="evenodd" fill="#F1F1F1" points="505,87.4 623.8,59.1 745,87.4 745,87.4 
			627.1,122.9 627.1,122.9 		"/>
		<path fill-rule="evenodd" clip-rule="evenodd" fill="#FE9B57" d="M716.1,145.8h9.8c5.5,7,8.9,25.5,5,39.6l-18.2-0.3
			C708.9,172,710.4,158.9,716.1,145.8"/>
		<path fill="#FACE00" d="M721.1,140L721.1,140c-1.4,0-2.6-1.2-2.6-2.7l0.1-27.7l-91.5-16.5c-1.4-0.2-2.4-1.6-2.1-3.1
			c0.2-1.4,1.7-2.4,3.1-2.1l95.8,17.3l-0.1,32.1C723.7,138.8,722.6,140,721.1,140z"/>
		<g>
			<path fill-rule="evenodd" clip-rule="evenodd" fill="#FE9B57" d="M721.1,120.5c5.2,0,9.5,4.2,9.5,9.4c0,5.2-4.2,9.4-9.5,9.4
				c-5.2,0-9.4-4.2-9.4-9.4C711.6,124.7,715.9,120.5,721.1,120.5z"/>
			<path fill="#FE9B57" d="M721.1,139.9c-5.5,0-9.9-4.5-9.9-10c0-5.5,4.4-10,9.9-10c5.5,0,10,4.5,10,10
				C731.1,135.4,726.6,139.9,721.1,139.9z M721.1,121c-4.9,0-8.9,4-8.9,8.9c0,4.9,4,8.9,8.9,8.9c4.9,0,8.9-4,8.9-8.9
				C730,125,726,121,721.1,121z"/>
		</g>
		<rect x="715" y="137.5" fill-rule="evenodd" clip-rule="evenodd" fill="#373737" width="12.2" height="8.3"/>
	</g>
</g>
<rect x="750" y="0" fill="none" width="250" height="250"/>
<g>
	<path fill="#FFFFFF" d="M850.3,220.3c-52.6,0-95.3-42.8-95.3-95.3s42.8-95.3,95.3-95.3c52.6,0,95.3,42.8,95.3,95.3
		S902.9,220.3,850.3,220.3z"/>
	<path fill="#CFF1FF" d="M850.3,203.6c-43.4,0-78.6-35.3-78.6-78.6c0-43.4,35.3-78.6,78.6-78.6c43.4,0,78.6,35.3,78.6,78.6
		C929,168.4,893.7,203.6,850.3,203.6z"/>
	<path fill="#4CBBE8" d="M912.3,125c0,34.2-27.8,62-62,62c-34.2,0-62-27.8-62-62s27.8-62,62-62C884.6,63,912.3,90.8,912.3,125z"/>
	<circle fill="#229BCC" cx="850.3" cy="125" r="43.4"/>
	<circle fill="#FFFFFF" cx="850.3" cy="125" r="27.7"/>
	<circle fill="#ABFF0E" cx="850.3" cy="125" r="10.8"/>
	<polygon opacity="0.25" points="995,125.7 972.5,105.7 972.5,105.7 988.1,79.5 942.2,86.4 931.1,105.1 847.6,117.6 855,132.8 
		934.2,119.3 949.1,132.6 	"/>
	<path fill="#D3D0DB" d="M951.7,59.8l-105.3,58.4c0.4,3.6,1,6.2,2.1,8.4l107.1-59.9L951.7,59.8z"/>
	<path fill="#A5A2AB" d="M955.5,66.6l-107.1,59.9c1.3,2.6,3.2,4.5,6.1,6.4l105.3-58.4L955.5,66.6z"/>
	<polygon fill="#FE9B57" points="959,65.2 962.1,31 921.5,53.5 918.4,87.6 959,65.2 	"/>
	<polygon fill="#E68645" points="959,65.2 918.4,87.6 948.7,102.6 989.3,80.1 	"/>
</g>
</svg>
