<?xml version="1.0" encoding="utf-8"?>
<!-- Generator: Adobe Illustrator 18.1.1, SVG Export Plug-In . SVG Version: 6.00 Build 0)  -->
<svg version="1.1" id="Layer_1" xmlns="http://www.w3.org/2000/svg" xmlns:xlink="http://www.w3.org/1999/xlink" x="0px" y="0px"
	 viewBox="0 0 213.5 213.5" enable-background="new 0 0 213.5 213.5" xml:space="preserve">
<g id="like_1_">
	<path fill="#FFFFFF" d="M194.6,69.9c-8.3-2.2-27.9-2.2-56.6-2.9c1.4-6.3,1.7-11.9,1.7-21.9c0-23.9-17.4-45-32.9-45
		c-10.9,0-19.9,8.9-20,19.9C86.6,33.3,82.4,56.5,60,68.3c-1.6,0.9-6.3,3.2-7,3.5l0.4,0.3c-3.5-3-8.4-5.3-13.3-5.3H20
		c-11,0-20,9-20,20v106.7c0,11,9,20,20,20h20c7.9,0,14.6-4.8,17.8-11.5c0.1,0,0.2,0.1,0.3,0.1c0.4,0.1,1,0.2,1.6,0.4
		c0.1,0,0.2,0,0.3,0.1c3.8,1,11.2,2.7,27.1,6.4c3.4,0.8,21.3,4.6,39.8,4.6h36.5c11.1,0,19.1-4.3,23.9-12.9c0.1-0.1,1.6-3.1,2.9-7.2
		c0.9-3,1.3-7.4,0.2-11.7c7.2-4.9,9.5-12.4,11-17.2c2.5-7.9,1.8-13.9,0-18.2c4-3.8,7.5-9.6,8.9-18.5c0.9-5.5-0.1-11.1-2.6-15.8
		c3.8-4.2,5.5-9.6,5.7-14.5l0.1-1.4c0-0.9,0.1-1.4,0.1-3.3C213.5,84.3,207.7,73.6,194.6,69.9z M46.7,193.5c0,3.7-3,6.7-6.7,6.7H20
		c-3.7,0-6.7-3-6.7-6.7V86.7c0-3.7,3-6.7,6.7-6.7h20c3.7,0,6.7,3,6.7,6.7V193.5z M200,97c-0.1,3.3-1.5,9.8-13.2,9.8
		c-10,0-13.3,0-13.3,0c-1.8,0-3.3,1.5-3.3,3.3c0,1.8,1.5,3.3,3.3,3.3c0,0,2.9,0,12.9,0s11.3,8.3,10.7,12.3
		c-0.8,5-3.2,14.4-14.4,14.4c-11.3,0-15.8,0-15.8,0c-1.8,0-3.3,1.5-3.3,3.3c0,1.8,1.5,3.3,3.3,3.3c0,0,7.9,0,13.1,0
		c11.3,0,10.3,8.6,8.7,13.7c-2.1,6.7-3.4,13-17.6,13c-4.8,0-10.9,0-10.9,0c-1.8,0-3.3,1.5-3.3,3.3c0,1.8,1.5,3.3,3.3,3.3
		c0,0,4.6,0,10.5,0c7.3,0,7.6,6.9,6.9,9.4c-0.8,2.7-1.8,4.7-1.9,4.8c-2,3.6-5.3,5.8-12.1,5.8h-36.5c-18.3,0-36.5-4.2-37-4.3
		c-27.7-6.4-29.2-6.9-30.9-7.4c0,0-5.6-1-5.6-5.9l0-92.1c0-3.1,2-6,5.3-7c0.4-0.2,1-0.3,1.4-0.5c30.5-12.6,39.8-40.3,40-63
		c0-3.2,2.5-6.7,6.7-6.7c7.1,0,19.5,14.2,19.5,31.7c0,15.8-0.6,18.6-6.2,35c66.7,0,66.2,1,72.1,2.5c7.3,2.1,7.9,8.1,7.9,10.2
		C200.1,95.1,200.1,94.7,200,97z"/>
	<path fill="#FFFFFF" d="M30,173.5c-5.5,0-10,4.5-10,10c0,5.5,4.5,10,10,10s10-4.5,10-10C40,177.9,35.5,173.5,30,173.5z M30,186.8
		c-1.8,0-3.3-1.5-3.3-3.3s1.5-3.3,3.3-3.3s3.3,1.5,3.3,3.3S31.9,186.8,30,186.8z"/>
</g>
</svg>
