<?xml version="1.0" encoding="utf-8"?>
<!-- Generator: Adobe Illustrator 18.1.1, SVG Export Plug-In . SVG Version: 6.00 Build 0)  -->
<svg version="1.1" id="Layer_1" xmlns="http://www.w3.org/2000/svg" xmlns:xlink="http://www.w3.org/1999/xlink" x="0px" y="0px"
	 viewBox="0 0 113.6 113.6" enable-background="new 0 0 113.6 113.6" xml:space="preserve">
<g>
	<g>
		<path fill="#00BBE3" d="M111.1,96.4c-0.6-0.6-0.8,0.5-24.5-19.8l-2.3,2.3l-2.7,2.7l-2.7,2.7l-2.3,2.3
			c20.4,23.7,19.2,23.8,19.8,24.5c3.8,3.8,10.7,3.1,14.3-0.5c0,0,0,0,0,0C114.2,107.1,114.9,100.2,111.1,96.4z"/>
		<path fill="#00BBE3" d="M80.5,75l2-2c-2-1.7-4.1-3.6-6.4-5.6c-0.9,0-1.8,0.2-2.7,0.5l-6-6C79.5,47,78.6,25,64.8,11.1
			c-14.8-14.8-38.8-14.8-53.6,0c-14.8,14.8-14.8,38.8,0,53.6C25,78.6,47,79.5,61.9,67.4l6,6c-0.3,0.9-0.5,1.8-0.5,2.7
			c2,2.3,3.9,4.4,5.6,6.5l2-2l2.7-2.7L80.5,75z M15.5,60.4C3.1,48,3.1,27.9,15.5,15.5C27.9,3.1,48,3.1,60.4,15.5
			c12.4,12.4,12.4,32.5,0,44.9C48,72.8,27.9,72.8,15.5,60.4z"/>
	</g>
	
		<radialGradient id="SVGID_1_" cx="-988.7391" cy="-974.6497" r="31.7318" gradientTransform="matrix(0 -1 1 0 1012.5801 -950.8093)" gradientUnits="userSpaceOnUse">
		<stop  offset="0" style="stop-color:#FFFFFF;stop-opacity:0.2"/>
		<stop  offset="1" style="stop-color:#FFFFFF"/>
	</radialGradient>
	<path opacity="0.5" fill="url(#SVGID_1_)" d="M15.5,15.5C3.1,27.9,3.1,48,15.5,60.4c12.4,12.4,32.5,12.4,44.9,0
		c12.4-12.4,12.4-32.5,0-44.9C48,3.1,27.9,3.1,15.5,15.5z"/>
	<path opacity="0.3" fill="#FFFFFF" d="M11.1,11.1l4.4,4.4C3.1,27.9,3.1,48,15.5,60.4c12.4,12.4,32.5,12.4,44.9,0l1.1,1.1l3.3,3.3
		c-0.9,0.9-1.9,1.8-2.9,2.6C47,79.5,25,78.6,11.1,64.8C-3.7,49.9-3.7,25.9,11.1,11.1z"/>
	<path opacity="0.3" fill="#FFFFFF" d="M76.5,86.6l2.3-2.3l2.7-2.7l13.8,13.8l15.3,15.3c-3.6,3.6-10.5,4.3-14.3,0.5
		C95.7,110.4,96.9,110.3,76.5,86.6z"/>
	<path opacity="0.3" fill="#FFFFFF" d="M73,82.5c-1.7-2-3.6-4.1-5.6-6.5c0-0.9,0.2-1.8,0.5-2.7C68.3,72.1,69,71,70,70l7.7,7.7
		L75,80.5L73,82.5z"/>
	<path fill="#95D600" d="M86.6,76.6c-1.3-1.1-2.7-2.3-4.1-3.5l-2,2l-2.7,2.7l0,0L75,80.5l-2,2c1.2,1.4,2.4,2.8,3.5,4.1l2.3-2.3
		l2.7-2.7l0,0l2.7-2.7L86.6,76.6z"/>
	<path opacity="0.3" fill="#FFFFFF" d="M73,82.5l2-2l2.7-2.7l3.8,3.8l-2.7,2.7l-2.3,2.3C75.4,85.3,74.3,83.9,73,82.5z"/>
</g>
</svg>
