<?xml version="1.0" encoding="utf-8"?>
<!-- Generator: Adobe Illustrator 18.1.1, SVG Export Plug-In . SVG Version: 6.00 Build 0)  -->
<svg version="1.1" id="Layer_1" xmlns="http://www.w3.org/2000/svg" xmlns:xlink="http://www.w3.org/1999/xlink" x="0px" y="0px"
	 viewBox="0 0 72 72" enable-background="new 0 0 72 72" xml:space="preserve">
<g>
	<g>
		<path fill="#ECF0F1" d="M71,72H1c-0.6,0-1-0.4-1-1V27.3c0-0.6,0.4-1,1-1s1,0.4,1,1V70h68V27.3c0-0.6,0.4-1,1-1s1,0.4,1,1V71
			C72,71.6,71.6,72,71,72z"/>
	</g>
	<g>
		<path fill="#ECF0F1" d="M60.9,33.8h-2V2H13.1v31.8h-2V1c0-0.6,0.4-1,1-1h47.9c0.6,0,1,0.4,1,1V33.8z"/>
	</g>
	<g>
		<path fill="#ECF0F1" d="M36,50.1c-0.2,0-0.4-0.1-0.5-0.2l-35-21.9c-0.5-0.3-0.6-0.9-0.3-1.4c0.3-0.5,0.9-0.6,1.4-0.3L36,47.9
			l34.5-21.5c0.5-0.3,1.1-0.2,1.4,0.3c0.3,0.5,0.2,1.1-0.3,1.4L36.5,50C36.4,50.1,36.2,50.1,36,50.1z"/>
	</g>
	<g>
		<path fill="#ECF0F1" d="M71,28.3c-0.2,0-0.4,0-0.5-0.2l-10.9-6.8c-0.5-0.3-0.6-0.9-0.3-1.4c0.3-0.5,0.9-0.6,1.4-0.3l10.9,6.8
			c0.5,0.3,0.6,0.9,0.3,1.4C71.7,28.1,71.3,28.3,71,28.3z"/>
	</g>
	<g>
		<path fill="#ECF0F1" d="M1,28.3c-0.3,0-0.7-0.2-0.8-0.5c-0.3-0.5-0.2-1.1,0.3-1.4l10.9-6.8c0.5-0.3,1.1-0.1,1.4,0.3
			c0.3,0.5,0.2,1.1-0.3,1.4L1.5,28.1C1.4,28.2,1.2,28.3,1,28.3z"/>
	</g>
	<g>
		<path fill="#ECF0F1" d="M50.7,13.1H21.3c-0.6,0-1-0.4-1-1s0.4-1,1-1h29.5c0.6,0,1,0.4,1,1S51.3,13.1,50.7,13.1z"/>
	</g>
	<g>
		<path fill="#ECF0F1" d="M50.7,20.4H21.3c-0.6,0-1-0.4-1-1s0.4-1,1-1h29.5c0.6,0,1,0.4,1,1S51.3,20.4,50.7,20.4z"/>
	</g>
	<g>
		<path fill="#ECF0F1" d="M50.7,27.8H21.3c-0.6,0-1-0.4-1-1s0.4-1,1-1h29.5c0.6,0,1,0.4,1,1S51.3,27.8,50.7,27.8z"/>
	</g>
	<g>
		<path fill="#ECF0F1" d="M50.7,35.2H21.3c-0.6,0-1-0.4-1-1s0.4-1,1-1h29.5c0.6,0,1,0.4,1,1S51.3,35.2,50.7,35.2z"/>
	</g>
</g>
</svg>
