<?xml version="1.0" encoding="utf-8"?>
<!-- Generator: Adobe Illustrator 18.1.1, SVG Export Plug-In . SVG Version: 6.00 Build 0)  -->
<svg version="1.1" id="Layer_1" xmlns="http://www.w3.org/2000/svg" xmlns:xlink="http://www.w3.org/1999/xlink" x="0px" y="0px"
	 viewBox="0 0 53.6 72" enable-background="new 0 0 53.6 72" xml:space="preserve">
<g>
	<g>
		<path fill="#ECF0F1" d="M26.8,72c-0.3,0-0.6-0.1-0.8-0.4C25,70.4,0,40.5,0,26.3C0,11.8,12,0,26.8,0s26.8,11.8,26.8,26.3
			c0,14.2-25,44.1-26,45.3C27.4,71.9,27.1,72,26.8,72z M26.8,2C13.1,2,2,12.9,2,26.3c0,12.1,20.5,37.9,24.8,43.1
			c4.3-5.2,24.8-31,24.8-43.1C51.6,12.9,40.5,2,26.8,2z"/>
	</g>
	<g>
		<path fill="#ECF0F1" d="M26.8,31.5c-4.6,0-8.4-3.8-8.4-8.4s3.8-8.4,8.4-8.4s8.4,3.8,8.4,8.4S31.4,31.5,26.8,31.5z M26.8,16.7
			c-3.5,0-6.4,2.9-6.4,6.4c0,3.5,2.9,6.4,6.4,6.4c3.5,0,6.4-2.9,6.4-6.4C33.2,19.6,30.3,16.7,26.8,16.7z"/>
	</g>
</g>
</svg>
