<?xml version="1.0" encoding="utf-8"?>
<!-- Generator: Adobe Illustrator 18.1.1, SVG Export Plug-In . SVG Version: 6.00 Build 0)  -->
<svg version="1.1" id="Layer_1" xmlns="http://www.w3.org/2000/svg" xmlns:xlink="http://www.w3.org/1999/xlink" x="0px" y="0px"
	 viewBox="0 0 72.1 72" enable-background="new 0 0 72.1 72" xml:space="preserve">
<g>
	<path fill="#ECF0F1" d="M55,72c-12.1,0-29.2-10.5-41.6-25.5C3.3,34.1-1.5,21.4,0.4,11.6c0-0.1,0-0.1,0.1-0.2C0.6,10.9,5.1,0,15.1,0
		c0.5,0,0.9,0,1.4,0.1C16.7,0,16.9,0,17.3,0c1.1,0,3.2,0.5,4.3,3.9l5.2,16.3c0.1,0.4,0,0.7-0.2,1l-7.4,7.4c1.3,3.1,8,17.8,23.6,23.6
		l6.5-6.5c0.2-0.2,0.6-0.3,0.9-0.3l18.1,4.3c1.4,0.4,3.9,2.1,3.9,5.9c0.1,1,0.5,10.5-11.7,15.7c0,0-0.1,0-0.1,0
		C58.6,71.8,56.9,72,55,72C55,72,55,72,55,72z M2.4,12.1C0.6,21.3,5.2,33.4,15,45.2C27,59.8,43.5,70,55,70c0,0,0,0,0,0
		c1.6,0,3.2-0.2,4.6-0.6C71,64.6,70.1,56.1,70.1,55.7c0,0,0-0.1,0-0.1c0-3.3-2.3-4-2.4-4l-17.5-4.1l-6.5,6.5c-0.3,0.3-0.7,0.4-1,0.2
		C23.9,47.7,17.3,29.4,17,28.6c-0.1-0.4,0-0.8,0.2-1l7.4-7.4l-5-15.7C19.1,2.9,18.3,2,17.3,2c-0.2,0-0.4,0-0.4,0
		c-0.1,0-0.3,0.1-0.4,0C16,2,15.5,2,15.1,2C6.9,2,2.8,11.1,2.4,12.1z"/>
</g>
</svg>
